<?xml version="1.0" encoding="UTF-8"?>
<svg width="22px" height="23px" viewBox="0 0 22 23" version="1.1" xmlns="http://www.w3.org/2000/svg" xmlns:xlink="http://www.w3.org/1999/xlink">
    <!-- Generator: Sketch 50 (54983) - http://www.bohemiancoding.com/sketch -->
    <title>地址</title>
    <desc>Created with Sketch.</desc>
    <defs></defs>
    <g id="Page-1" stroke="none" stroke-width="1" fill="none" fill-rule="evenodd">
        <g id="首页-copy" transform="translate(-136.000000, -4667.000000)" fill-rule="nonzero">
            <g id="Group-27" transform="translate(0.000000, 4425.000000)">
                <g id="Group-2" transform="translate(136.000000, 204.653515)">
                    <g id="地址" transform="translate(0.000000, 38.000000)">
                        <rect id="Rectangle-path" fill="#000000" opacity="0" x="0" y="0.0214634146" width="22" height="21.9785366"></rect>
                        <path d="M10.9920322,21.9913687 C5.31884405,21.9913687 0.781393143,20.7241306 0.781393143,18.6345611 C0.781393143,17.2904257 2.44651275,16.3974741 5.13033995,15.8372215 C5.54897615,15.725014 5.96447062,15.984739 5.99745882,16.3943354 C6.0519509,16.5890526 6.02126008,16.7977208 5.91300396,16.9685477 C5.80474783,17.1393747 5.62907575,17.2563448 5.4295902,17.2904257 C3.46286402,17.7031608 2.29099683,18.3371721 2.29099686,18.6345611 C2.29099686,18.7083198 2.40488475,18.8205273 2.745763,19.0441575 C3.16047203,19.3062365 3.76525604,19.5659614 4.56011503,19.7895917 C6.22444919,20.2729468 8.57132532,20.5358105 11.0281621,20.5358105 C13.4873553,20.5358105 15.7949597,20.2729468 17.4969947,19.7895917 C18.288712,19.5659614 18.8950668,19.3062365 19.3105613,19.0441575 C19.6121679,18.8205273 19.7260558,18.7083199 19.7260558,18.6345611 C19.7260558,18.2987234 18.4418716,17.6262634 16.2858558,17.2166669 C16.090312,17.1861587 15.9155615,17.0776038 15.801678,16.9158961 C15.6877945,16.7541884 15.6445485,16.5532014 15.6818573,16.3590254 C15.7163044,16.1637702 15.8279852,15.990591 15.9917126,15.8785442 C16.15544,15.7664974 16.3574262,15.7250187 16.5521179,15.7634627 C19.4244492,16.3205766 21.2026713,17.2551156 21.2026713,18.6345611 C21.2026713,20.7241306 16.6652203,21.9913686 10.9920322,21.9913687 Z M12.7820358,17.8420469 C12.4073839,18.1786693 12.0727891,18.4462409 11.7813931,18.6376998 C11.3855345,18.8997787 11.083928,19.0166942 10.8035281,19.0166942 C10.5270554,19.0166942 10.2246634,18.8997787 9.82644848,18.6376998 C9.47408854,18.3969942 9.13966405,18.1310793 8.82580585,17.8420469 C8.04429925,17.1405542 7.19131817,16.2224932 6.42159306,15.2526442 C5.22223569,13.7421593 3.20759807,10.8161342 3.20759807,8.2102534 C3.20759807,5.98729038 3.93333888,3.94087756 5.24972587,2.45000931 C5.91622367,1.69155153 6.73798699,1.08492835 7.65943668,0.671168101 C8.62159306,0.23960097 9.67878691,0.0206787551 10.8035281,0.0206787551 C11.9282693,0.0206787551 12.987034,0.239600991 13.9476195,0.671168101 C14.8691285,1.08521286 15.6910918,1.69178601 16.3581157,2.45000931 C17.6760736,3.94087756 18.3994581,5.98729038 18.3994581,8.2102534 C18.3994581,10.8161342 16.3856059,13.7398053 15.1862485,15.2526442 C14.415738,16.2224932 13.5627569,17.1429082 12.7820358,17.8420469 Z M10.8035281,1.38443085 C7.14654845,1.38443085 4.58996151,4.18961716 4.58996151,8.2078994 C4.58996151,9.75683304 5.59610219,11.944486 7.35233209,14.2066824 C8.04429925,15.09728 8.82344955,15.9627683 9.54840492,16.6399363 C10.2160236,17.2629623 10.6268055,17.5336726 10.8003864,17.6239094 C10.9755381,17.5336726 11.3855345,17.2629623 12.0531532,16.6399363 C12.8467026,15.8862236 13.5811477,15.0727477 14.2500115,14.2066824 C16.0062414,11.944486 17.0115966,9.75683304 17.0115966,8.2078994 C17.0170947,4.18961716 14.462864,1.38443085 10.8035281,1.38443085 Z M10.8035281,11.1606032 C9.82391865,11.1643033 8.88269712,10.7803391 8.18567733,10.0926707 C7.49152187,9.41288701 7.10104638,8.48220462 7.10256415,7.51111468 C7.10256415,6.53577299 7.48821214,5.61849668 8.18567733,4.93034327 C8.88237658,4.24209589 9.82373976,3.85779173 10.8035281,3.86162615 C11.7931747,3.86162615 12.7231282,4.24140522 13.4213789,4.93034327 C14.1158659,5.60957954 14.5064223,6.54017193 14.504492,7.51111468 C14.504492,8.48645636 14.1196295,9.40451735 13.4213789,10.0926707 C12.724745,10.7809229 11.783271,11.1649901 10.8035281,11.1606032 Z M10.8035281,5.22459359 C9.52641278,5.22459359 8.48806933,6.24936934 8.48806933,7.50876068 C8.48806933,8.76815201 9.52641278,9.7921431 10.8035281,9.79214308 C12.0806434,9.79214306 13.1197723,8.76815201 13.1197723,7.50876068 C13.1197723,6.24936934 12.0837851,5.22459359 10.8035281,5.22459359 Z" id="Shape" fill="#ADBAC9"></path>
                    </g>
                </g>
            </g>
        </g>
    </g>
</svg>