<?xml version="1.0" encoding="UTF-8"?>
<svg width="100px" height="100px" viewBox="0 0 100 100" version="1.1" xmlns="http://www.w3.org/2000/svg" xmlns:xlink="http://www.w3.org/1999/xlink">
    <!-- Generator: Sketch 50 (54983) - http://www.bohemiancoding.com/sketch -->
    <title>outline_icon-4</title>
    <desc>Created with Sketch.</desc>
    <defs></defs>
    <g id="Page-1" stroke="none" stroke-width="1" fill="none" fill-rule="evenodd" stroke-linejoin="round">
        <g id="联系我们1" transform="translate(-221.000000, -618.000000)">
            <g id="outline_icon-4" transform="translate(221.000000, 618.000000)">
                <rect id="Rectangle-path" fill-rule="nonzero" x="0" y="0" width="100" height="100" rx="10"></rect>
                <rect id="Rectangle-path" stroke="#AE0000" stroke-width="2" x="1" y="1" width="98" height="98" rx="9"></rect>
                <path d="M49.376,77.702681 C48.584,76.7414165 30,54.0437212 30,43.0891227 C30,31.9942066 38.954305,23 50,23 C61.045695,23 70,31.9942066 70,43.0891227 C70,54.0457301 51.416,76.7384031 50.626,77.7046899 C50.470012,77.8910019 50.2403553,77.9989955 49.998,78 C49.7569513,77.9987952 49.5289607,77.8898146 49.376,77.702681 Z M31.636,43.0891227 C31.636,52.3602528 46.713,71.7412338 50.002,75.8564906 C53.291,71.7382205 68.368,52.3592483 68.368,43.0891227 C68.4525786,36.441977 64.9705592,30.2630825 59.2531812,26.9147432 C53.5358033,23.566404 46.4671967,23.566404 40.7498188,26.9147432 C35.0324408,30.2630825 31.5504214,36.441977 31.635,43.0891227 L31.636,43.0891227 Z M40.712,43.0891227 C40.7786201,37.9513328 44.9673783,33.8341427 50.0826174,33.8786094 C55.1978564,33.9230762 59.3150448,38.1124699 59.2931268,43.2506483 C59.2712087,48.3888268 55.1184306,52.542628 50.003,52.5430638 C44.8395234,52.504364 40.6821756,48.273663 40.711,43.0871137 L40.712,43.0891227 Z M42.348,43.0891227 C42.4025085,47.3223248 45.8535285,50.7148927 50.0681475,50.6785092 C54.2827664,50.6421257 57.6752255,47.1904801 57.6572905,42.9569623 C57.6393555,38.7234444 54.2177746,35.3009239 50.003,35.3005698 C45.7498573,35.3326349 42.3252711,38.816968 42.348,43.0891227 Z" id="pin_icon" fill="#AE0000" fill-rule="nonzero"></path>
            </g>
        </g>
    </g>
</svg>