<?xml version="1.0" encoding="UTF-8"?>
<svg width="14px" height="14px" viewBox="0 0 14 14" version="1.1" xmlns="http://www.w3.org/2000/svg" xmlns:xlink="http://www.w3.org/1999/xlink">
    <!-- Generator: Sketch 50 (54983) - http://www.bohemiancoding.com/sketch -->
    <title>07_箭头_向右_fill copy</title>
    <desc>Created with Sketch.</desc>
    <defs></defs>
    <g id="Page-1" stroke="none" stroke-width="1" fill="none" fill-rule="evenodd">
        <g id="关于我们-公司动态" transform="translate(-358.000000, -700.000000)" fill-rule="nonzero">
            <g id="07_箭头_向右_fill-copy" transform="translate(358.000000, 700.000000)">
                <rect id="Rectangle-path" fill="#000000" opacity="0" x="0" y="0" width="14" height="14"></rect>
                <path d="M7,0.875 C3.62250705,0.875 0.875,3.62250705 0.875,7 C0.875,10.3774929 3.62250705,13.125 7,13.125 C10.3774929,13.125 13.125,10.3774929 13.125,7 C13.125,3.62250705 10.3774929,0.875 7,0.875 Z M9.04750705,7.32768109 L6.85651457,9.49461429 C6.77121354,9.57862181 6.66006585,9.62104891 6.54894167,9.62104891 C6.43607713,9.62104891 6.32318909,9.57772813 6.23788804,9.49111006 C6.06813263,9.31916744 6.06944965,9.04266226 6.24139228,8.87248353 L8.12001411,7.01441673 L6.25670273,5.14586075 C6.08607714,4.97478831 6.08652399,4.69785981 6.2575729,4.52723422 C6.42864534,4.35616178 6.70557385,4.35705549 6.87619944,4.5281044 L9.04882408,6.70684381 C9.04927093,6.70729067 9.04927093,6.70771399 9.04969425,6.70816084 C9.05011758,6.70860769 9.05056443,6.70860769 9.05101128,6.70903101 C9.09125116,6.74971775 9.1201317,6.79696611 9.14113357,6.84640167 C9.14200375,6.84814203 9.14419096,6.8499059 9.14463781,6.85164625 C9.20938382,7.01048919 9.17699906,7.19950611 9.04750705,7.32768109 Z" id="Shape" fill="#AE0000"></path>
            </g>
        </g>
    </g>
</svg>