<?xml version="1.0" encoding="UTF-8"?>
<svg width="100px" height="100px" viewBox="0 0 100 100" version="1.1" xmlns="http://www.w3.org/2000/svg" xmlns:xlink="http://www.w3.org/1999/xlink">
    <!-- Generator: Sketch 50 (54983) - http://www.bohemiancoding.com/sketch -->
    <title>Group 12</title>
    <desc>Created with Sketch.</desc>
    <defs></defs>
    <g id="Page-1" stroke="none" stroke-width="1" fill="none" fill-rule="evenodd">
        <g id="联系我们1" transform="translate(-221.000000, -874.000000)">
            <g id="Group-12" transform="translate(222.000000, 875.000000)">
                <rect id="Rectangle-path" stroke="#AE0000" stroke-width="2" stroke-linejoin="round" x="0" y="0" width="98" height="98" rx="9"></rect>
                <path d="M26.4339194,67.9999999 C23.9894226,68.0000074 22.0060644,66.0218886 22,63.5777936 L22,33.4222063 C22.0060644,30.9781112 23.9894226,28.9999925 26.4339194,29 L72.5660806,29 C75.0105774,28.9999925 76.9939356,30.9781112 77,33.4222063 L77,63.5777936 C76.9944852,66.0221174 75.0108049,68.0005575 72.5660806,67.9999999 L26.4339194,67.9999999 Z M23.7739677,33.4232061 L23.7739677,63.5787934 C23.7778254,65.0450354 24.967436,66.2317712 26.4339194,66.2323172 L72.5660806,66.2323172 C74.032564,66.2317712 75.2221746,65.0450354 75.2260323,63.5787934 L75.2260323,33.4232061 C75.2273535,33.0743709 75.1593731,32.7287465 75.0260359,32.4063886 L56.9893638,48.0945727 L67.1421792,57.5928679 C67.4981203,57.9280445 67.5149093,58.4882596 67.1796786,58.8441433 C66.8444478,59.2000269 66.2841424,59.2168132 65.9282013,58.8816365 L55.7233868,49.3323505 C55.6979168,49.3084562 55.6738757,49.2830835 55.6513882,49.2563642 L52.7594407,51.7719127 C50.8698843,53.3338385 48.1371156,53.3338385 46.2475591,51.7719127 L43.3566117,49.2563642 C43.3344368,49.282415 43.3107285,49.307121 43.285613,49.3303509 L33.0767986,58.8796369 C32.7187677,59.1994481 32.171111,59.1759461 31.8418038,58.8266387 C31.5124965,58.4773312 31.521373,57.9293305 31.8618207,57.5908682 L42.017636,48.0925731 L23.980964,32.3953906 C23.8435273,32.7212898 23.7731295,33.0715217 23.7739677,33.4252057 L23.7739677,33.4232061 Z M47.409538,50.4391519 C48.629063,51.4231338 50.369937,51.4231338 51.589462,50.4391519 L73.8350575,31.0916246 C73.4456688,30.8798438 73.0093513,30.769149 72.5660806,30.7696824 L26.4339194,30.7696824 C25.9922713,30.7689812 25.557446,30.8786151 25.1689424,31.0886251 L47.409538,50.4391519 Z" id="envelope_icon" fill="#AE0000" fill-rule="nonzero"></path>
            </g>
        </g>
    </g>
</svg>