<?xml version="1.0" encoding="UTF-8"?>
<svg width="329px" height="84px" viewBox="0 0 329 84" version="1.1" xmlns="http://www.w3.org/2000/svg" xmlns:xlink="http://www.w3.org/1999/xlink">
    <!-- Generator: Sketch 50 (54983) - http://www.bohemiancoding.com/sketch -->
    <title>神舟科技LOGO-01 Copy</title>
    <desc>Created with Sketch.</desc>
    <defs></defs>
    <g id="Page-1" stroke="none" stroke-width="1" fill="none" fill-rule="evenodd">
        <g id="首页-copy" transform="translate(-136.000000, -4475.000000)" fill-rule="nonzero">
            <g id="Group-27" transform="translate(0.000000, 4425.000000)">
                <g id="神舟科技LOGO-01-Copy" transform="translate(136.000000, 50.000000)">
                    <path d="M124.038238,27.4168331 C125.135124,27.4168331 126.054135,27.4459344 126.973147,27.4168331 C127.41783,27.3877318 127.595704,27.5623395 127.714286,27.9406562 C128.840816,31.0835949 129.996992,34.2556348 131.123523,37.3985735 C131.182814,37.5731812 131.271751,37.7768902 131.449624,37.9223966 C131.449624,30.2978602 131.449624,22.6442225 131.449624,14.9614836 C135.33319,14.9614836 139.157465,14.9614836 143.070677,14.9614836 C143.070677,13.6228245 143.070677,12.3132668 143.070677,10.9746077 C146.005585,10.9746077 148.851557,10.9746077 151.786466,10.9746077 C151.786466,12.2841655 151.786466,13.564622 151.786466,14.9614836 C155.610741,14.9614836 159.405371,14.9614836 163.2,14.9614836 C163.2,25.5834522 163.2,36.1472183 163.2,46.7400856 C160.294737,46.7400856 157.448765,46.7400856 154.513856,46.7400856 C154.513856,42.3457917 154.513856,38.0097004 154.513856,33.5863053 C153.594844,33.5863053 152.764769,33.5863053 151.875403,33.5863053 C151.875403,36.4673324 151.875403,39.3774608 151.875403,42.3457917 C152.646187,42.3457917 153.416971,42.3457917 154.276692,42.3457917 C154.187755,42.578602 154.15811,42.7532097 154.069173,42.9278174 C153.654135,43.9754636 153.209452,45.0231098 152.794415,46.0707561 C152.616541,46.478174 152.497959,46.9146933 151.845757,46.7691869 C151.845757,48.3697575 151.845757,49.9412268 151.845757,51.5417974 C148.940494,51.5417974 146.064876,51.5417974 143.159613,51.5417974 C143.159613,49.9703281 143.159613,48.4279601 143.159613,46.7691869 C139.246402,46.7691869 135.392481,46.7691869 131.508915,46.7691869 C131.508915,44.2082739 131.508915,41.7346648 131.508915,39.2028531 C129.077981,39.2028531 126.676692,39.2028531 124.275403,39.2028531 C123.741783,37.7186876 123.208163,36.2927247 122.674544,34.8667618 C122.615252,34.8667618 122.585607,34.8667618 122.526316,34.8958631 C122.526316,40.4542083 122.526316,46.0125535 122.526316,51.6 C119.621053,51.6 116.804726,51.6 113.929108,51.6 C113.929108,46.3908702 113.929108,41.1817404 113.929108,35.9435093 C111.972503,36.7874465 110.045542,37.6022825 108.059291,38.4462197 C108.029646,38.1261056 108.029646,37.9805991 108.029646,37.8059914 C108.029646,36.0308131 108.029646,34.2556348 108.029646,32.4513552 C108.029646,32.0439372 108.177873,31.8693295 108.503974,31.6947218 C112.180021,29.8031384 115.411386,27.3586305 117.901611,24.0410842 C118.820623,22.789729 119.591407,21.4801712 120.184318,19.9669044 C119.917508,19.9378031 119.709989,19.9378031 119.472825,19.9378031 C116.419334,19.9378031 113.395489,19.9378031 110.341998,19.9378031 C109.571214,19.9378031 108.830075,19.8796006 108.059291,19.8504993 C108.029646,19.0938659 108,18.3663338 108,17.6097004 C108,16.8821683 108,16.1837375 108,15.3980029 C108.237164,15.3689016 108.444683,15.3689016 108.652202,15.3689016 C110.549517,15.3689016 112.417186,15.3398003 114.314501,15.3689016 C114.759184,15.3689016 114.937057,15.2524964 114.937057,14.7868759 C114.907411,13.6810271 114.937057,12.5751783 114.937057,11.4984308 C114.937057,11.2947218 114.937057,11.0910128 114.937057,10.8 C116.330397,10.8 117.664447,10.8 118.968851,10.8 C120.3029,10.8 121.63695,10.8 123.03029,10.8 C123.03029,12.3132668 123.03029,13.7974322 123.03029,15.3689016 C124.927605,15.3689016 126.735983,15.3689016 128.633298,15.3689016 C128.48507,17.6097004 128.010741,19.6758916 127.239957,21.6838802 C126.409882,23.6918688 125.372288,25.5543509 124.038238,27.4168331 Z M140.343287,19.41398 C140.343287,22.4114123 140.343287,25.3506419 140.343287,28.2898716 C141.262299,28.2898716 142.18131,28.2898716 143.070677,28.2898716 C143.070677,25.3215407 143.070677,22.382311 143.070677,19.41398 C142.151665,19.41398 141.262299,19.41398 140.343287,19.41398 Z M143.070677,33.5281027 C142.270247,33.5281027 141.529108,33.557204 140.78797,33.5281027 C140.402578,33.5281027 140.283996,33.6445078 140.283996,33.9937233 C140.313641,35.099572 140.283996,36.2345221 140.283996,37.3403709 C140.283996,38.8536377 140.283996,40.3378031 140.283996,41.8510699 C140.283996,42.0547789 140.195059,42.3457917 140.580451,42.3457917 C141.380881,42.3457917 142.210956,42.3457917 143.041031,42.3457917 C143.070677,39.4065621 143.070677,36.4964337 143.070677,33.5281027 Z M154.454565,28.3189729 C154.454565,25.3506419 154.454565,22.382311 154.454565,19.4430813 C153.565199,19.4430813 152.705478,19.4430813 151.845757,19.4430813 C151.845757,22.4405136 151.845757,25.3797432 151.845757,28.3189729 C152.735124,28.3189729 153.565199,28.3189729 154.454565,28.3189729 Z" id="Shape" fill="#FBFBFB"></path>
                    <path d="M177.702691,51.6 C173.255974,51.6 168.867384,51.6 164.449731,51.6 C164.449731,49.5582282 164.449731,47.5164564 164.449731,45.3871801 C165.292573,45.3871801 166.077287,45.3871801 166.920129,45.3871801 C166.920129,42.237018 166.920129,39.1743603 166.920129,35.9950299 C165.670398,35.9950299 164.449731,35.9950299 163.2,35.9950299 C163.2,34.1574353 163.2,32.4365134 163.2,30.6280869 C164.420667,30.6280869 165.641335,30.6280869 166.920129,30.6280869 C166.920129,25.1153031 166.920129,19.6608556 166.920129,14.1189037 C167.995479,14.1189037 169.041765,14.1189037 170.058988,14.1189037 C170.698385,14.1189037 171.424973,14.2939127 171.919053,14.0313991 C172.413132,13.7688856 172.64564,13.0396814 172.994403,12.5146544 C173.343165,11.9896274 173.575673,11.231255 174.098816,10.9687415 C174.592896,10.6770598 175.348547,10.8520688 175.987944,10.8520688 C178.865231,10.8520688 181.742519,10.8520688 184.619806,10.8520688 C184.794187,10.8520688 184.997632,10.8520688 185.288267,10.8520688 C184.590743,11.9604592 183.951346,12.9813451 183.224758,14.1189037 C188.427126,14.1189037 193.542304,14.1189037 198.628418,14.1189037 C203.714532,14.1189037 208.800646,14.1189037 213.97395,14.1189037 C213.97395,19.6025193 213.97395,25.0569668 213.97395,30.5697506 C215.078364,30.5697506 216.12465,30.5697506 217.2,30.5697506 C217.2,32.378177 217.2,34.1282672 217.2,35.9658618 C216.153714,35.9658618 215.078364,35.9658618 214.003014,35.9658618 C214.003014,41.1577957 214.003014,46.2913934 214.003014,51.4541592 C213.799569,51.4541592 213.625188,51.4833273 213.450807,51.4833273 C209.381916,51.4833273 205.313025,51.4833273 201.273197,51.4833273 C200.924435,51.4833273 200.72099,51.3958228 200.546609,51.0458048 C199.790958,49.52906 199.006243,48.0414835 198.192465,46.4372342 C199.994403,46.4372342 201.70915,46.4372342 203.423897,46.4372342 C203.423897,42.937054 203.423897,39.4952101 203.423897,35.9950299 C203.220452,35.9950299 203.017008,35.9658618 202.813563,35.9658618 C194.646717,35.9658618 186.479871,35.9658618 178.342088,35.9658618 C177.818945,35.9658618 177.702691,36.1117026 177.702691,36.6075615 C177.731755,41.3619729 177.702691,46.0872162 177.702691,50.8416276 C177.702691,51.1041411 177.702691,51.3374865 177.702691,51.6 Z M203.423897,30.5989188 C203.423897,26.8362251 203.423897,23.1026995 203.423897,19.3983421 C194.850161,19.3983421 186.30549,19.3983421 177.760818,19.3983421 C177.760818,23.1318677 177.760818,26.8653932 177.760818,30.5989188 C186.30549,30.5989188 194.850161,30.5989188 203.423897,30.5989188 Z" id="Shape" fill="#FBFBFB"></path>
                    <path d="M3.06540405,58.8 C-1.44268808,46.5440495 -1.11644457,34.5848532 4.96354811,23.0114374 C12.6747583,8.38145286 26.0804007,2.59474498 34.8,1.2 C34.2958055,2.0309119 33.791611,2.8618238 33.317075,3.66306028 C31.5375649,6.57125193 29.7580548,9.44976816 27.9785448,12.3579598 C26.7328878,14.3758887 25.4872307,16.3938176 24.2415737,18.4117465 C23.0255751,20.4 21.8095766,22.3585781 20.6232366,24.3468315 C20.4749441,24.6139104 20.4156271,24.94034 20.4156271,25.2370943 C20.4156271,32.5075734 20.4156271,39.807728 20.4156271,47.0782071 C20.4156271,47.5233385 20.2969931,47.7904173 19.8817741,48.0574961 C16.4710465,50.2238022 13.1196359,52.4197836 9.70890825,54.6157651 C7.72178869,55.8918083 5.70501063,57.197527 3.71789107,58.4735703 C3.53994007,58.592272 3.36198906,58.6516229 3.06540405,58.8 Z" id="Shape" fill="#AE0000"></path>
                    <path d="M50.4,1.2 C51.0946903,1.34586427 51.7025443,1.43338284 52.3103983,1.57924711 C55.6970134,2.42525989 58.9678469,3.59217407 62.0360623,5.25502678 C64.2069694,6.42194096 66.2620949,7.76389227 68.2014386,9.31005356 C69.8802734,10.6520049 71.4433266,12.1106476 72.9195434,13.6859817 C74.8009963,15.6697358 76.4219403,17.8576999 77.8692117,20.1915283 C79.6059374,23.050468 81.0821543,26.0260992 82.008408,29.2351132 C82.616262,31.3063859 83.1083343,33.4068314 83.5425157,35.5072769 C83.7740792,36.6741911 83.83197,37.899451 83.8898609,39.1247109 C83.9766972,40.6708722 84.034588,42.2170335 83.9766972,43.7631948 C83.9188063,46.0678503 83.6872429,48.3433329 83.1662252,50.5896427 C82.6452074,52.8651254 82.0662989,55.1114352 81.197936,57.2702264 C81.0532089,57.6494735 80.9663726,57.6786464 80.6190274,57.4744364 C78.158666,55.8407565 75.6983046,54.2654224 73.2379431,52.6609154 C70.4012911,50.8230256 67.5646391,48.9851357 64.7279871,47.1472459 C64.4095874,46.9430359 64.2648603,46.7388259 64.2648603,46.330406 C64.2648603,39.1830566 64.2648603,32.0648801 64.2938057,24.9175307 C64.2938057,24.071518 63.8306789,23.4880609 63.4543883,22.8462581 C61.7176626,19.9581455 59.9809369,17.0992057 58.2152657,14.240266 C56.6232671,11.6147091 55.0023231,9.01832501 53.4103246,6.39276811 C52.4551254,4.81743396 51.4709809,3.24209982 50.5157817,1.66676567 C50.4868363,1.60841996 50.4868363,1.46255569 50.4,1.2 Z" id="Shape" fill="#AE0000"></path>
                    <path d="M295.037393,52.8 C295.037393,52.5639913 295.037393,52.3869848 295.037393,52.2099783 C295.037393,50.4694143 295.037393,48.6993492 295.037393,46.9587852 C295.037393,46.5457701 295.123842,46.3982646 295.556089,46.2802603 C298.351286,45.6607375 301.060034,44.775705 303.653516,43.5366594 C303.884048,43.4186551 304.085763,43.3301518 304.258662,43.2121475 C302.817839,41.7370933 301.348199,40.2915401 299.965009,38.7869848 C298.581818,37.2529284 297.457976,35.5123644 296.564666,33.5652928 C296.766381,33.5652928 296.93928,33.5357918 297.083362,33.5357918 C299.820926,33.5357918 302.558491,33.5357918 305.267238,33.5357918 C305.613036,33.5357918 305.814751,33.6537961 306.016467,33.9488069 C307.342024,35.8663774 308.984563,37.4299349 310.828816,38.845987 C313.047684,36.9284165 315.007204,34.7748373 316.390395,32.0312364 C316.073413,32.0312364 315.871698,32.0312364 315.669983,32.0312364 C309.071012,32.0312364 302.500858,32.0312364 295.901887,32.0312364 C295.354374,32.0312364 295.239108,31.883731 295.239108,31.3527115 C295.267925,30.1136659 295.267925,28.8746204 295.239108,27.6355748 C295.239108,27.1930586 295.354374,27.0750542 295.786621,27.0750542 C299.014065,27.1045553 302.212693,27.0750542 305.440137,27.0750542 C305.641852,27.0750542 305.843568,27.0750542 306.131732,27.0750542 C306.131732,26.4555315 306.131732,25.8950108 306.131732,25.3344902 C306.131732,24.213449 306.102916,23.0924078 306.131732,22.0008677 C306.131732,21.5288503 306.016467,21.410846 305.555403,21.410846 C301.895712,21.4403471 298.264837,21.410846 294.605146,21.410846 C294.403431,21.410846 294.230532,21.410846 294,21.410846 C294,19.7292842 294,18.0772234 294,16.3661605 C298.005489,16.3661605 302.010978,16.3661605 306.102916,16.3661605 C306.102916,14.8911063 306.102916,13.4750542 306.102916,12 C309.215094,12 312.26964,12 315.410635,12 C315.410635,12.3245119 315.410635,12.6490239 315.410635,12.9735358 C315.410635,13.8880694 315.439451,14.802603 315.410635,15.7466377 C315.381818,16.2186551 315.525901,16.3366594 315.986964,16.3366594 C319.646655,16.3071584 323.27753,16.3366594 326.937221,16.3366594 C327.138937,16.3366594 327.340652,16.3366594 327.6,16.3366594 C327.6,18.0182213 327.6,19.670282 327.6,21.410846 C327.427101,21.410846 327.225386,21.410846 327.023671,21.410846 C323.363979,21.410846 319.704288,21.410846 316.01578,21.410846 C315.525901,21.410846 315.410635,21.5583514 315.410635,22.0303688 C315.439451,23.505423 315.439451,25.0099783 315.410635,26.4850325 C315.410635,26.9275488 315.525901,27.0750542 315.986964,27.0750542 C319.560206,27.0455531 323.104631,27.0750542 326.677873,27.0750542 C326.879588,27.0750542 327.081304,27.0750542 327.340652,27.0750542 C326.821955,30.3201735 325.611664,33.2112798 323.911492,35.9253796 C322.211321,38.6099783 320.136535,40.940564 317.715952,43.0646421 C317.946484,43.1826464 318.090566,43.2711497 318.263465,43.3301518 C321.029846,44.5986985 323.911492,45.6017354 326.879588,46.2507592 C327.11012,46.3097614 327.340652,46.3097614 327.340652,46.6637744 C327.340652,48.6698482 327.340652,50.6464208 327.340652,52.7704989 C326.447341,52.6229935 325.582847,52.5344902 324.718353,52.3574837 C320.078902,51.5019523 315.61235,50.026898 311.405146,47.8143167 C311.232247,47.7258134 310.915266,47.7258134 310.742367,47.8143167 C306.016467,50.35141 300.973585,51.8854664 295.728988,52.6819957 C295.556089,52.7704989 295.325557,52.7704989 295.037393,52.8 Z" id="Shape" fill="#FFFFFF"></path>
                    <path d="M63.6,78.0594907 C51.502814,85.6455925 33.7424846,86.2975231 20.4,78.0891239 C20.9633493,77.6149925 21.5266987,77.1112279 22.090048,76.6370966 C22.9202471,75.9555327 23.7207962,75.2739689 24.5509952,74.5924051 C25.8259437,73.5256095 27.1008922,72.458814 28.3758408,71.3920184 C29.3839396,70.5326553 30.3920384,69.6732922 31.4001373,68.8435623 C32.4082361,67.9841992 33.4459849,67.1544693 34.4837337,66.2951062 C35.2842828,65.6135424 36.0551819,64.9319786 36.855731,64.280048 C38.1010295,63.2428856 39.375978,62.2057232 40.6212766,61.1389277 C40.9474262,60.8425956 41.3032258,60.5758967 41.5997255,60.2499314 C41.8665752,59.9832325 42.1334248,59.8943329 42.4595745,60.1610318 C43.0229238,60.6647963 43.6159231,61.1092945 44.2089224,61.613059 C45.5431709,62.739121 46.8774194,63.8355498 48.2116678,64.9616118 C49.1901167,65.7913417 50.1982155,66.6507048 51.1766644,67.4804347 C52.4219629,68.517597 53.6969115,69.5547594 54.94221,70.6215549 C55.9503089,71.480918 56.9287577,72.3402811 57.9368566,73.1996442 C59.2118051,74.2664398 60.4571036,75.3036021 61.7320522,76.3703977 C62.2657515,76.8148958 62.769801,77.259394 63.3035003,77.7038921 C63.3924502,77.7927918 63.4814001,77.9409578 63.6,78.0594907 Z" id="Shape" fill="#AE0000"></path>
                    <path d="M278.370732,37.3677233 C276.760976,37.7204611 275.180488,38.0731988 273.6,38.4553314 C273.6,36.5446686 273.6,34.6634006 273.6,32.7233429 C275.063415,32.4 276.497561,32.0472622 277.960976,31.7239193 C278.282927,31.6651297 278.429268,31.5475504 278.429268,31.1654179 C278.429268,28.1377522 278.429268,25.1394813 278.429268,22.1118156 C278.429268,21.9942363 278.4,21.9060519 278.4,21.729683 C276.819512,21.729683 275.239024,21.729683 273.629268,21.729683 C273.629268,20.0247839 273.629268,18.3786744 273.629268,16.6737752 C273.834146,16.6737752 274.039024,16.6443804 274.243902,16.6443804 C275.443902,16.6443804 276.673171,16.6149856 277.873171,16.6443804 C278.312195,16.6443804 278.458537,16.4974063 278.429268,16.0564841 C278.4,14.8806916 278.429268,13.7342939 278.429268,12.5585014 C278.429268,12.3821326 278.458537,12.2057637 278.458537,12 C281.736585,12 285.014634,12 288.35122,12 C288.35122,12.2939481 288.35122,12.5878963 288.35122,12.8818444 C288.35122,13.9106628 288.380488,14.9394813 288.35122,15.9389049 C288.321951,16.4386167 288.468293,16.6149856 288.995122,16.6149856 C290.04878,16.5855908 291.102439,16.6149856 292.156098,16.6149856 C292.331707,16.6149856 292.536585,16.6443804 292.741463,16.6443804 C292.741463,18.3198847 292.741463,19.995389 292.741463,21.7002882 C291.278049,21.7002882 289.873171,21.7002882 288.409756,21.7002882 C288.409756,24.2576369 288.409756,26.756196 288.409756,29.3135447 C289.873171,28.9902017 291.278049,28.6668588 292.770732,28.3435159 C292.770732,28.6080692 292.770732,28.784438 292.770732,28.9608069 C292.770732,30.4305476 292.741463,31.929683 292.8,33.3994236 C292.8,33.8991354 292.62439,34.0755043 292.185366,34.1636888 C291.102439,34.3988473 290.04878,34.6927954 288.965854,34.8985591 C288.468293,34.9867435 288.380488,35.221902 288.380488,35.6628242 C288.409756,41.1302594 288.380488,46.5976945 288.380488,52.0651297 C288.380488,52.3002882 288.380488,52.5060519 288.380488,52.7706052 C288.117073,52.7706052 287.941463,52.8 287.765854,52.8 C284.370732,52.8 280.97561,52.8 277.609756,52.8 C277.2,52.8 276.995122,52.6530259 276.84878,52.3002882 C276.321951,51.0657061 275.765854,49.8311239 275.209756,48.5965418 C275.15122,48.4495677 275.092683,48.2731988 275.004878,48.0674352 C276.17561,48.0674352 277.317073,48.0674352 278.458537,48.0674352 C278.370732,44.5694524 278.370732,41.0420749 278.370732,37.3677233 Z" id="Shape" fill="#FFFFFF"></path>
                    <path d="M218.4,25.4610219 C218.4,23.8230657 218.4,22.2446715 218.4,20.6067153 C218.606135,20.6067153 218.782822,20.6067153 218.988957,20.6067153 C220.991411,20.6067153 222.993865,20.6067153 224.966871,20.6067153 C225.379141,20.6067153 225.555828,20.5173723 225.555828,20.0408759 C225.52638,19.0283212 225.52638,18.0455474 225.555828,17.0329927 C225.585276,16.5564964 225.379141,16.4671533 224.966871,16.4671533 C222.876074,16.4969343 220.755828,16.4671533 218.606135,16.4671533 C218.606135,14.9781022 218.606135,13.5188321 218.606135,12 C226.409816,12 234.213497,12 242.076074,12 C241.98773,12.1786861 241.928834,12.2978102 241.869939,12.4467153 C241.16319,13.6677372 240.456442,14.8887591 239.779141,16.109781 C239.631902,16.3778102 239.455215,16.4969343 239.10184,16.4969343 C237.835583,16.4671533 236.569325,16.4969343 235.244172,16.4969343 C235.244172,16.7054015 235.214724,16.8840876 235.214724,17.0329927 C235.214724,18.0157664 235.244172,18.9985401 235.214724,19.9813139 C235.185276,20.4875912 235.391411,20.6067153 235.833129,20.6067153 C237.806135,20.5769343 239.779141,20.6067153 241.781595,20.6067153 C241.98773,20.6067153 242.164417,20.6067153 242.4,20.6067153 C242.4,22.2148905 242.4,23.7635036 242.4,25.4312409 C240.044172,25.4312409 237.658896,25.4312409 235.244172,25.4312409 C235.244172,34.6037956 235.244172,43.6870073 235.244172,52.8 C232.004908,52.8 228.853988,52.8 225.614724,52.8 C225.614724,52.5319708 225.585276,52.2937226 225.585276,52.0554745 C225.585276,43.4487591 225.585276,34.8420438 225.585276,26.2353285 C225.585276,25.4610219 225.585276,25.4610219 224.790184,25.4610219 C222.905521,25.4610219 221.020859,25.4610219 219.106748,25.4610219 C218.871166,25.4610219 218.665031,25.4610219 218.4,25.4610219 Z" id="Shape" fill="#FFFFFF"></path>
                    <path d="M259.762963,12 C263.17037,12 266.518519,12 269.925926,12 C269.925926,12.2636037 269.925926,12.4979182 269.925926,12.7322326 C269.925926,21.4018665 269.925926,30.1007897 269.925926,38.7704235 C269.925926,39.7076813 269.866667,39.5612347 270.755556,39.590524 C271.703704,39.590524 272.622222,39.590524 273.6,39.590524 C273.6,41.2893037 273.6,42.9002154 273.6,44.598995 C272.414815,44.598995 271.2,44.598995 269.955556,44.598995 C269.955556,47.3521895 269.955556,50.0468055 269.955556,52.8 C266.548148,52.8 263.22963,52.8 259.822222,52.8 C259.822222,52.6242642 259.792593,52.4192391 259.792593,52.2142139 C259.792593,49.8710696 259.792593,47.5279253 259.792593,45.2140704 C259.792593,44.7454415 259.644444,44.6282843 259.2,44.6282843 C254.637037,44.6575736 250.074074,44.6282843 245.481481,44.6282843 C245.274074,44.6282843 245.066667,44.6282843 244.8,44.6282843 C244.8,42.958794 244.8,41.318593 244.8,39.590524 C245.007407,39.590524 245.214815,39.590524 245.451852,39.590524 C249.925926,39.590524 254.37037,39.590524 258.844444,39.590524 C259.911111,39.590524 259.792593,39.7369706 259.792593,38.623977 C259.792593,30.0129218 259.792593,21.4018665 259.792593,12.7908112 C259.762963,12.5564968 259.762963,12.3221823 259.762963,12 Z" id="Shape" fill="#FFFFFF"></path>
                    <path d="M40.8,0 C40.6511701,0.382245354 40.5321061,0.676280241 40.4130421,0.970315128 C39.3117005,3.82245354 38.2103589,6.70399543 37.0792513,9.55613384 C36.0374416,12.1730443 34.995632,14.7899548 33.9538223,17.3774618 C33.5966305,18.28897 33.2989706,19.2298816 33.2989706,20.2590037 C33.3287365,31.5793469 33.3287365,42.8702866 33.3287365,54.1906297 C33.3287365,54.6316821 33.2096726,54.8963135 32.8227147,55.1903484 C30.1735416,57.1603821 27.5839005,59.1598193 24.9347274,61.1298531 C23.0297041,62.570624 21.1246807,63.9819915 19.2196574,65.4227624 C17.0169741,67.0693578 14.8440569,68.7453567 12.6413736,70.4213555 C11.9865218,70.9212148 11.9567558,70.9506183 11.391202,70.3625486 C9.84337056,68.7159532 8.41460305,66.9517439 7.22396345,65.0699206 C7.16443147,64.9523066 7.22396345,64.6582717 7.31326142,64.5700613 C9.66477462,62.747045 12.0162878,60.9828356 14.367801,59.1598193 C16.8979102,57.1897856 19.4280193,55.2197519 21.9581284,53.2497181 C23.5357259,52.0147716 25.1430893,50.7798251 26.7504528,49.574282 C27.0183467,49.3684576 27.0183467,49.1626332 27.0183467,48.8980018 C27.0183467,43.8406017 27.0183467,38.8126051 27.0183467,33.7552051 C27.0183467,29.9327515 27.0183467,26.110298 27.0183467,22.258441 C27.0183467,21.9644061 27.1076447,21.6409677 27.2267086,21.3763363 C28.8340721,18.230163 30.4414355,15.1133932 32.078565,11.9966234 C33.3585025,9.52673035 34.6384401,7.08624079 35.9183777,4.61634773 C36.6625274,3.20498027 37.4066772,1.8230163 38.1508269,0.411648842 C38.2103589,0.294034887 38.3591888,0.176420932 38.4782528,0.176420932 C39.2521685,0.0588069775 39.9665523,0.0294034887 40.8,0 Z" id="Shape" fill="#FFFFFF"></path>
                    <path d="M73.2079037,70.8 C72.4333376,70.2126918 71.6885624,69.6841145 70.9735782,69.1555371 C69.0371628,67.6872667 67.0709563,66.2483617 65.1345408,64.7800912 C62.6023053,62.8713397 60.0700697,60.9332227 57.5378341,58.9951058 C55.8397467,57.7030278 54.1118683,56.4403152 52.4137809,55.1776027 C52.0860798,54.9426794 51.9073338,54.6490253 51.9073338,54.2085442 C51.9371248,43.0790543 51.9073338,31.9495645 51.9371248,20.8200747 C51.9371248,19.5573621 51.6392147,18.4414766 51.1923496,17.2962256 C50.0305003,14.3890502 48.8984421,11.4525093 47.7365928,8.51596848 C46.7832806,6.07863957 45.8001773,3.64131066 44.8468651,1.17461634 C44.6979101,0.822231439 44.578746,0.440481128 44.4,0 C45.1745662,0.0880962256 45.9193414,0.117461634 46.6343255,0.234923268 C46.7832806,0.264288677 46.9918176,0.41111572 47.0513996,0.587308171 C48.570741,3.49448362 50.0602913,6.37229365 51.5796327,9.2794691 C52.860646,11.7755288 54.1714503,14.2422231 55.4822546,16.7089175 C56.2866118,18.2359187 57.090969,19.7335545 57.8953262,21.2605558 C58.0442812,21.5248445 58.1038632,21.847864 58.1038632,22.141518 C58.1038632,30.8043136 58.1336542,39.4377437 58.0740722,48.1005392 C58.0740722,49.0108669 58.3719823,49.5394442 59.0571754,50.0680216 C60.9637999,51.4775612 62.8406333,52.9458316 64.7472578,54.3847366 C66.9815833,56.0879303 69.1861178,57.791124 71.4204433,59.4943177 C73.5356048,61.1094152 75.6507663,62.7538781 77.7957188,64.3983409 C78.0340469,64.5745334 78.0638379,64.7507258 77.8850918,64.9856491 C76.6338695,66.5420158 75.4124383,68.1277478 74.161216,69.7134799 C73.8930969,70.0658648 73.5653958,70.3888843 73.2079037,70.8 Z" id="Shape" fill="#AE0000"></path>
                    <path d="M218.4,27.6 C219.92381,27.6 221.392208,27.6 222.888312,27.6 C222.999134,27.6 223.137662,27.7768421 223.165368,27.9242105 C223.220779,28.0715789 223.193074,28.2484211 223.193074,28.3957895 C223.193074,36.2947368 223.193074,44.1642105 223.193074,52.0631579 C223.193074,52.2989474 223.165368,52.5347368 223.165368,52.8 C221.558442,52.8 220.006926,52.8 218.427706,52.8 C218.4,44.4 218.4,36.0294737 218.4,27.6 Z" id="Shape" fill="#FFFFFF"></path>
                    <path d="M237.6,27.6 C239.209412,27.6 240.790588,27.6 242.4,27.6 C242.4,36 242.4,44.3705263 242.4,52.8 C240.790588,52.8 239.209412,52.8 237.6,52.8 C237.6,44.4 237.6,36.0294737 237.6,27.6 Z" id="Shape" fill="#FFFFFF"></path>
                    <path d="M183.6,38.4276316 C183.804878,38.4276316 183.980488,38.4 184.156098,38.4 C187.258537,38.4 190.360976,38.4 193.492683,38.4 C193.902439,38.4 194.107317,38.5105263 194.22439,38.8973684 C194.75122,40.4723684 195.336585,41.9921053 195.863415,43.5671053 C195.980488,43.8986842 196.126829,44.0644737 196.536585,44.0368421 C196.97561,44.0092105 197.443902,44.0368421 198,44.0368421 C197.619512,44.9486842 197.297561,45.8052632 196.917073,46.6618421 C196.887805,46.7447368 196.653659,46.8 196.507317,46.8 C193.287805,46.8 190.068293,46.8 186.878049,46.8 C186.614634,46.8 186.468293,46.7171053 186.380488,46.4684211 C185.473171,43.8710526 184.565854,41.2460526 183.658537,38.6486842 C183.6,38.5934211 183.629268,38.5381579 183.6,38.4276316 Z" id="Shape" fill="#FFFFFF"></path>
                    <path d="M243.6,13.2366893 C245.957396,13.2366893 248.314793,13.3276469 250.615385,13.2063701 C251.836686,13.1457317 252.546746,13.509562 253.143195,14.661691 C254.052071,16.4202037 255.131361,18.0574397 256.125444,19.7553141 C256.352663,20.1191443 256.579882,20.3010594 256.977515,20.2404211 C257.289941,20.2101019 257.630769,20.2404211 258,20.2404211 C257.971598,20.4223362 257.943195,20.5436129 257.886391,20.6648896 C257.545562,21.6351036 257.176331,22.6356367 256.835503,23.6058506 C256.750296,23.8787233 256.636686,24 256.32426,24 C254.194083,23.9696808 252.063905,24 249.933728,23.9696808 C249.791716,23.9696808 249.564497,23.8484041 249.47929,23.7271273 C247.519527,20.3010594 245.559763,16.8446723 243.6,13.3882852 C243.628402,13.3882852 243.628402,13.357966 243.6,13.2366893 Z" id="Shape" fill="#FFFFFF"></path>
                    <path d="M259.2,33.4382022 C258.745562,34.7123596 258.319527,35.8348315 257.893491,36.9876404 C257.865089,37.0786517 257.666272,37.2 257.52426,37.2 C255.36568,37.2 253.207101,37.2 251.048521,37.2 C250.906509,37.2 250.707692,37.0786517 250.650888,36.9573034 C248.691124,33.4988764 246.731361,30.0101124 244.8,26.5516854 C244.8,26.5516854 244.8,26.5213483 244.8,26.4303371 C244.942012,26.4303371 245.112426,26.4 245.254438,26.4 C247.810651,26.4 250.366864,26.4 252.923077,26.4 C253.292308,26.4 253.491124,26.5213483 253.689941,26.8550562 C254.854438,28.8573034 256.047337,30.8595506 257.211834,32.8617978 C257.467456,33.3168539 257.751479,33.5292135 258.23432,33.4382022 C258.518343,33.4078652 258.802367,33.4382022 259.2,33.4382022 Z" id="Shape" fill="#FFFFFF"></path>
                    <path d="M205.185337,61.4172702 C204.617454,61.5075209 204.079458,61.6278552 203.481686,61.7481894 C203.481686,61.2367688 203.481686,60.7855153 203.481686,60.3041783 C200.612378,60.3041783 197.802848,60.3041783 194.963429,60.3041783 C194.963429,62.8913649 194.963429,65.448468 194.963429,68.0657382 C197.802848,68.0657382 200.612378,68.0657382 203.451797,68.0657382 C203.451797,67.0428969 203.451797,66.0200557 203.451797,64.9671309 C202.017143,64.9671309 200.58249,64.9671309 199.147836,64.9671309 C199.147836,64.4857939 199.147836,64.064624 199.147836,63.5832869 C201.150373,63.5832869 203.1828,63.5832869 205.155449,63.5832869 C205.155449,65.1175487 205.185337,66.6518106 205.12556,68.1559889 C205.095672,68.908078 204.557676,69.3292479 203.840349,69.4796657 C203.481686,69.5398329 203.093134,69.6 202.704582,69.6 C200.403158,69.6 198.071845,69.6 195.770421,69.6 C193.737995,69.6 193.2,69.0284123 193.2,66.9827298 C193.2,65.1175487 193.2,63.2523677 193.2,61.4172702 C193.2,61.2367688 193.2,61.0562674 193.2,60.875766 C193.259777,59.5220056 193.708107,59.0406685 195.023206,58.8601671 C195.292204,58.8300836 195.59109,58.8 195.889976,58.8 C198.101734,58.8 200.343381,58.8 202.555139,58.8 C202.674693,58.8 202.764359,58.8 202.883914,58.8 C204.707119,58.8 205.304892,59.491922 205.185337,61.4172702 Z" id="Shape" fill="#B50101"></path>
                    <path d="M238.757876,69.51 C237.324394,69.51 235.862243,69.57 234.428761,69.48 C233.339316,69.42 232.880601,69 232.851932,67.89 C232.765923,65.37 232.794593,62.85 232.880601,60.36 C232.909271,59.4 233.396655,59.01 234.314083,58.89 C234.916145,58.83 235.518207,58.8 236.12027,58.8 C238.184483,58.8 240.248696,58.8 242.31291,58.8 C244.262444,58.8 244.778498,59.31 244.778498,61.35 C244.807167,63.27 244.807167,65.16 244.778498,67.08 C244.749828,69.09 244.262444,69.6 242.341579,69.6 C241.166124,69.6 239.962,69.6 238.786545,69.6 C238.757876,69.54 238.757876,69.51 238.757876,69.51 Z M243.05832,68.04 C243.05832,65.43 243.05832,62.85 243.05832,60.3 C240.191357,60.3 237.353064,60.3 234.486101,60.3 C234.486101,62.91 234.486101,65.46 234.486101,68.04 C237.353064,68.04 240.191357,68.04 243.05832,68.04 Z" id="Shape" fill="#B50101"></path>
                    <path d="M249.6,69.5097493 C249.6,65.929805 249.6,62.3799443 249.6,58.8601671 C249.658231,58.8300836 249.687347,58.8 249.716462,58.8 C252.336868,58.8601671 254.986388,58.8 257.606794,59.010585 C260.314546,59.2211699 261.537401,61.6579387 261.595633,63.7337047 C261.624748,64.6061281 261.508286,65.5086351 261.246245,66.3208914 C260.605702,68.2763231 259.179037,69.3593315 257.228291,69.4796657 C254.753464,69.6 252.249521,69.5699164 249.745578,69.6 C249.687347,69.5398329 249.658231,69.5398329 249.6,69.5097493 Z M251.346937,68.0657382 C252.831833,68.0657382 254.287614,68.0657382 255.743394,68.0657382 C256.121897,68.0657382 256.5004,68.005571 256.878903,67.9454039 C258.654956,67.6746518 259.586655,66.7721448 259.790465,64.9370474 C260.052505,62.25961 259.266384,60.5749304 256.529516,60.3342618 C255.04462,60.2139276 253.559723,60.2740947 252.074827,60.2440111 C251.841902,60.2440111 251.608977,60.2440111 251.346937,60.2440111 C251.346937,62.8913649 251.346937,65.448468 251.346937,68.0657382 Z" id="Shape" fill="#B50101"></path>
                    <path d="M172.8,58.8 C172.8,62.43 172.8,65.97 172.8,69.54 C172.293454,69.54 171.786907,69.54 171.220767,69.54 C171.220767,66.69 171.220767,63.84 171.220767,60.81 C170.982393,61.23 170.833409,61.5 170.654628,61.77 C169.31377,63.72 168.002709,65.64 166.661851,67.59 C166.393679,67.98 166.095711,68.01 165.82754,67.62 C164.397291,65.7 162.99684,63.78 161.596388,61.86 C161.417607,61.62 161.268623,61.35 161.060045,60.99 C161.060045,63.93 161.060045,66.75 161.060045,69.6 C160.553499,69.6 160.076749,69.6 159.6,69.6 C159.6,66.03 159.6,62.49 159.6,58.86 C160.017156,58.86 160.464108,58.83 160.911061,58.89 C161.060045,58.89 161.179233,59.1 161.29842,59.22 C162.788262,61.2 164.278104,63.21 165.797743,65.22 C165.946727,65.43 166.125508,65.64 166.304289,65.91 C166.453273,65.73 166.57246,65.55 166.661851,65.4 C168.062302,63.42 169.432957,61.44 170.803612,59.43 C171.071783,59.01 171.369752,58.77 171.876298,58.86 C172.14447,58.86 172.472235,58.8 172.8,58.8 Z" id="Shape" fill="#B50101"></path>
                    <path d="M273.641261,63.3378151 C273.641261,63.8521008 273.641261,64.2756303 273.641261,64.7294118 C271.846418,64.7294118 270.082521,64.7294118 268.256734,64.7294118 C268.256734,65.8789916 268.256734,66.9680672 268.256734,68.1176471 C271.196562,68.1176471 274.198281,68.1176471 277.2,68.1176471 C277.2,68.6319328 277.2,69.1159664 277.2,69.6 C273.610315,69.6 270.02063,69.6 266.4,69.6 C266.4,66.0302521 266.4,62.4302521 266.4,58.8 C269.958739,58.8 273.486533,58.8 277.107163,58.8 C277.107163,59.2235294 277.107163,59.6470588 277.107163,60.1310924 C274.167335,60.1310924 271.258453,60.1310924 268.287679,60.1310924 C268.287679,61.189916 268.287679,62.2184874 268.287679,63.307563 C270.02063,63.3378151 271.815473,63.3378151 273.641261,63.3378151 Z" id="Shape" fill="#B50101"></path>
                    <path d="M227.995357,62.3432252 C227.443981,62.4331853 226.921625,62.5231453 226.31221,62.643092 C226.31221,61.8334518 226.31221,61.083785 226.31221,60.3341182 C223.845529,60.3341182 221.436887,60.3341182 218.999226,60.3341182 C218.999226,62.912972 218.999226,65.4618392 218.999226,68.0706797 C221.407868,68.0706797 223.816509,68.0706797 226.28319,68.0706797 C226.28319,67.2310529 226.28319,66.391426 226.28319,65.4318525 C226.834566,65.5517992 227.356922,65.6417592 227.850258,65.7617059 C227.908298,65.7916926 227.995357,65.9416259 227.995357,66.0615726 C227.966337,66.7812528 227.995357,67.5009329 227.879278,68.2206131 C227.763199,69.0302532 227.356922,69.3900933 226.544368,69.51004 C226.051032,69.5700133 225.528676,69.6 225.03534,69.6 C223.265133,69.6 221.523947,69.6 219.75374,69.6 C217.751376,69.6 217.2,69.0302532 217.2,66.9611728 C217.2,65.1319858 217.2,63.3027988 217.2,61.4436251 C217.2,61.263705 217.2,61.083785 217.2,60.9038649 C217.25804,59.5544647 217.693336,58.9847179 218.999226,58.8647712 C220.014918,58.7748112 221.05963,58.8047979 222.075322,58.8047979 C223.497291,58.8047979 224.890241,58.7748112 226.31221,58.8947579 C227.443981,58.9847179 227.821238,59.434518 227.937317,60.6039982 C228.024377,61.173745 227.995357,61.7434918 227.995357,62.3432252 Z" id="Shape" fill="#B50101"></path>
                    <path d="M176.4,69.54038 C177.028571,68.3479802 177.6,67.2450104 178.2,66.1420406 C179.4,63.846671 180.628571,61.5513015 181.828571,59.2559319 C182,58.9578319 182.171429,58.8684019 182.485714,58.8385919 C183.542857,58.659732 184.085714,59.1068819 184.571429,60.0906117 C186.114286,63.1312312 187.771429,66.1122306 189.371429,69.1230401 C189.428571,69.2422801 189.485714,69.36152 189.6,69.57019 C189.028571,69.57019 188.485714,69.6 187.971429,69.57019 C187.857143,69.57019 187.685714,69.42114 187.628571,69.2720901 C187.285714,68.6162702 186.942857,67.9604503 186.628571,67.2748204 C186.514286,67.0065305 186.342857,66.8872905 186.057143,66.8872905 C183.971429,66.8872905 181.885714,66.9171005 179.8,66.8872905 C179.485714,66.8872905 179.342857,67.0065305 179.228571,67.2748204 C178.914286,67.9306403 178.571429,68.5864602 178.285714,69.2422801 C178.171429,69.51057 178,69.6 177.742857,69.6 C177.285714,69.51057 176.885714,69.54038 176.4,69.54038 Z M185.714286,65.4564107 C184.771429,63.6081911 183.857143,61.8494014 182.914286,60.0011817 C181.942857,61.8792114 181.057143,63.6380011 180.114286,65.4564107 C182.028571,65.4564107 183.828571,65.4564107 185.714286,65.4564107 Z" id="Shape" fill="#B50101"></path>
                    <path d="M108,64.2 C108,63.975 108,63.825 108,63.6 C122.770341,63.6 137.540681,63.6 152.340681,63.6 C152.370341,63.7875 152.370341,63.975 152.4,64.2 C137.6,64.2 122.8,64.2 108,64.2 Z" id="Shape" fill="#FFFFFF"></path>
                    <path d="M328.8,63.6 C328.8,63.825 328.8,63.975 328.8,64.2 C314.029659,64.2 299.259319,64.2 284.459319,64.2 C284.429659,64.0125 284.429659,63.825 284.4,63.6 C299.2,63.6 313.970341,63.6 328.8,63.6 Z" id="Shape" fill="#FFFFFF"></path>
                    <path d="M210,58.8 C210.421053,58.8 210.8,58.8 211.2,58.8 C211.2,62.4 211.2,65.9697479 211.2,69.6 C210.821053,69.6 210.421053,69.6 210,69.6 C210,66.0302521 210,62.4605042 210,58.8 Z" id="Shape" fill="#B50101"></path>
                    <path d="M183.630063,21.6 C183.810438,21.6 183.960752,21.6 184.111065,21.6 C187.327766,21.6 190.57453,21.6 193.791232,21.6 C194.212109,21.6 194.392484,21.7235294 194.512735,22.125 C194.933612,23.5147059 195.414614,24.8426471 195.805428,26.2323529 C195.955741,26.7264706 196.16618,26.8808824 196.647182,26.8191176 C197.068058,26.7882353 197.518998,26.8191176 198,26.8191176 C197.609186,27.8691176 197.278497,28.8573529 196.887683,29.8147059 C196.85762,29.9073529 196.647182,30 196.496868,30 C193.189979,30 189.853027,30 186.546138,30 C186.395825,30 186.185386,29.8455882 186.125261,29.7220588 C185.283507,27.1279412 184.441754,24.5029412 183.6,21.8779412 C183.630063,21.8161765 183.630063,21.7235294 183.630063,21.6 Z" id="Shape" fill="#FFFFFF"></path>
                </g>
            </g>
        </g>
    </g>
</svg>