<?xml version="1.0" encoding="UTF-8"?>
<svg width="100px" height="100px" viewBox="0 0 100 100" version="1.1" xmlns="http://www.w3.org/2000/svg" xmlns:xlink="http://www.w3.org/1999/xlink">
    <!-- Generator: Sketch 50 (54983) - http://www.bohemiancoding.com/sketch -->
    <title>网页兼课</title>
    <desc>Created with Sketch.</desc>
    <defs></defs>
    <g id="Page-1" stroke="none" stroke-width="1" fill="none" fill-rule="evenodd">
        <g id="联系我们1" transform="translate(-828.000000, -874.000000)">
            <g id="网页兼课" transform="translate(829.000000, 875.000000)">
                <rect id="Rectangle-path-Copy-4" stroke="#AE0000" stroke-width="2" stroke-linejoin="round" x="0" y="0" width="98" height="98" rx="9"></rect>
                <path d="M70.6109253,27 L27.3556299,27 C25.5105909,27 24.0111483,28.5061198 24.0111483,30.359375 L24.0111483,37.7611979 L24,37.7611979 L24,40.2247396 L24.0111483,40.2247396 L24.0111483,66.640625 C24.0111483,68.4938802 25.5105909,70 27.3556299,70 L70.6109253,70 C72.4559643,70 73.9554069,68.4938802 73.9554069,66.640625 L73.9554069,30.359375 C73.9554069,28.5061198 72.4559643,27 70.6109253,27 Z M72,66.4681896 C72,67.4172092 71.2446123,68.1832853 70.3088335,68.1832853 L27.6914377,68.1832853 C26.7556589,68.1832853 26.0002712,67.4172092 26.0002712,66.4681896 L26.0002712,40.0614316 L72,40.0614316 L72,66.4681896 Z M72,38.0480089 L26.0002712,38.0480089 L26.0002712,30.793061 C26.0002712,29.8067208 26.7556589,29.0105185 27.6914377,29.0105185 L70.3088335,29.0105185 C71.2446123,29.0105185 72,29.8067208 72,30.793061 L72,38.0480089 Z M31.1460424,31.703125 C30.1594203,31.703125 29.3623188,32.503776 29.3623188,33.4947917 C29.3623188,34.4858073 30.1594203,35.2864583 31.1460424,35.2864583 C32.1326644,35.2864583 32.9297659,34.4858073 32.9297659,33.4947917 C32.9297659,32.503776 32.1326644,31.703125 31.1460424,31.703125 Z M36.4972129,31.703125 C35.5105909,31.703125 34.7134894,32.503776 34.7134894,33.4947917 C34.7134894,34.4858073 35.5105909,35.2864583 36.4972129,35.2864583 C37.483835,35.2864583 38.2809365,34.4858073 38.2809365,33.4947917 C38.2809365,32.503776 37.483835,31.703125 36.4972129,31.703125 Z M41.8483835,31.703125 C40.8617614,31.703125 40.06466,32.503776 40.06466,33.4947917 C40.06466,34.4858073 40.8617614,35.2864583 41.8483835,35.2864583 C42.8350056,35.2864583 43.632107,34.4858073 43.632107,33.4947917 C43.632107,32.503776 42.8350056,31.703125 41.8483835,31.703125 Z" id="Shape" fill="#AE0000" fill-rule="nonzero"></path>
            </g>
        </g>
    </g>
</svg>