<?xml version="1.0" encoding="UTF-8"?>
<svg width="14px" height="14px" viewBox="0 0 14 14" version="1.1" xmlns="http://www.w3.org/2000/svg" xmlns:xlink="http://www.w3.org/1999/xlink">
    <!-- Generator: Sketch 50 (54983) - http://www.bohemiancoding.com/sketch -->
    <title>Group 10</title>
    <desc>Created with Sketch.</desc>
    <defs></defs>
    <g id="Page-1" stroke="none" stroke-width="1" fill="none" fill-rule="evenodd">
        <g id="首页-copy" transform="translate(-324.000000, -1209.000000)" fill-rule="nonzero">
            <g id="Group-20" transform="translate(283.000000, 1205.000000)">
                <g id="Group-10" transform="translate(48.000000, 11.000000) rotate(90.000000) translate(-48.000000, -11.000000) translate(40.000000, 3.000000)">
                    <rect id="Rectangle-path" fill="#000000" opacity="0" x="0" y="0" width="16" height="16"></rect>
                    <path d="M8,1 C4.14000806,1 1,4.14000806 1,8 C1,11.8599919 4.14000806,15 8,15 C11.8599919,15 15,11.8599919 15,8 C15,4.14000806 11.8599919,1 8,1 Z M10.8310223,8.36479111 L7.97212845,10.8547195 C7.86082429,10.9512489 7.71579437,11 7.57079513,11 C7.423525,11 7.2762242,10.950222 7.16492002,10.8506929 C6.94341642,10.6531212 6.94513493,10.3354011 7.16949249,10.1398562 L9.62079276,8.0048327 L7.18947017,5.85775656 C6.96683114,5.66118469 6.96741421,5.34297823 7.19060561,5.14691981 C7.41382771,4.95034793 7.77517501,4.95137485 7.99781404,5.14791969 L10.8327408,7.65141408 C10.8333239,7.65192754 10.8333239,7.65241396 10.8338763,7.65292742 C10.8344286,7.65344088 10.8350117,7.65344088 10.8355948,7.6539273 C10.8881014,7.70067865 10.9257859,7.75496968 10.9531899,7.81177392 C10.9543254,7.8137737 10.9571793,7.81580049 10.9577624,7.81780025 C11.0422456,8.00031973 10.9999886,8.21751083 10.8310223,8.36479111 Z" id="Shape" fill="#B1CAEB"></path>
                </g>
            </g>
        </g>
    </g>
</svg>