<?xml version="1.0" encoding="UTF-8"?>
<svg width="14px" height="14px" viewBox="0 0 14 14" version="1.1" xmlns="http://www.w3.org/2000/svg" xmlns:xlink="http://www.w3.org/1999/xlink">
    <!-- Generator: Sketch 50 (54983) - http://www.bohemiancoding.com/sketch -->
    <title>Group 10</title>
    <desc>Created with Sketch.</desc>
    <defs></defs>
    <g id="Page-1" stroke="none" stroke-width="1" fill="none" fill-rule="evenodd">
        <g id="首页-公司简介展开" transform="translate(-573.000000, -1541.000000)" fill-rule="nonzero">
            <g id="Group-20-Copy" transform="translate(532.000000, 1537.000000)">
                <g id="Group-10" transform="translate(48.000000, 11.000000) scale(1, -1) rotate(90.000000) translate(-48.000000, -11.000000) translate(40.000000, 3.000000)">
                    <rect id="Rectangle-path" fill="#000000" opacity="0" x="0" y="0" width="16" height="16"></rect>
                    <path d="M8,1 C4.14000806,1 1,4.14000806 1,8 C1,11.8599919 4.14000806,15 8,15 C11.8599919,15 15,11.8599919 15,8 C15,4.14000806 11.8599919,1 8,1 Z M10.3400081,8.37449267 L7.83601666,10.8509878 C7.73852977,10.9469964 7.61150383,10.9954845 7.48450477,10.9954845 C7.35551672,10.9954845 7.22650181,10.945975 7.12901491,10.8469829 C6.93500872,10.6504771 6.93651389,10.3344712 7.13301975,10.1399812 L9.28001613,8.01647627 L7.15051741,5.88098372 C6.95551673,5.68547236 6.95602742,5.36898264 7.15151189,5.17398197 C7.34702325,4.97847061 7.66351297,4.97949198 7.85851364,5.17497645 L10.3415132,7.66496436 C10.3420239,7.66547505 10.3420239,7.66595884 10.3425077,7.66646953 C10.3429915,7.66698022 10.3435022,7.66698022 10.3440129,7.66746402 C10.3900013,7.71396314 10.4230077,7.76796127 10.4470098,7.82445905 C10.4480043,7.82644803 10.450504,7.82846389 10.4510146,7.83045286 C10.5250101,8.01198764 10.4879989,8.22800698 10.3400081,8.37449267 Z" id="Shape" fill="#B1CAEB"></path>
                </g>
            </g>
        </g>
    </g>
</svg>