<?xml version="1.0" encoding="UTF-8"?>
<svg width="72px" height="72px" viewBox="0 0 72 72" version="1.1" xmlns="http://www.w3.org/2000/svg" xmlns:xlink="http://www.w3.org/1999/xlink">
    <!-- Generator: Sketch 50 (54983) - http://www.bohemiancoding.com/sketch -->
    <title>Group 7</title>
    <desc>Created with Sketch.</desc>
    <defs></defs>
    <g id="Page-1" stroke="none" stroke-width="1" fill="none" fill-rule="evenodd">
        <g id="首页-copy" transform="translate(-669.000000, -869.000000)">
            <g id="Group-7" transform="translate(670.000000, 870.000000)">
                <circle id="Oval-2-Copy" stroke="#FFFFFF" cx="35" cy="35" r="35"></circle>
                <g id="核心竞争力" transform="translate(10.000000, 10.000000)" fill-rule="nonzero">
                    <rect id="Rectangle-path" fill="#000000" opacity="0" x="0" y="0" width="50" height="50"></rect>
                    <path d="M33.4990234,37.3242187 C33.2275879,37.3087891 32.772168,37.2916016 32.3185547,37.2527344 C32.1359375,37.2371094 32.0360352,37.2681152 31.9503418,37.4541016 C31.359082,38.7374023 30.6328125,39.9373535 29.6755371,40.9852051 C28.8817383,41.8543457 27.9766113,42.570752 26.8552246,42.976123 C25.2162109,43.5685547 23.6709473,43.3266113 22.2165527,42.4169922 C20.8742676,41.5771484 19.9123535,40.3770508 19.0964355,39.0459473 C18.7753011,38.5188126 18.4857139,37.9730953 18.2291992,37.4116699 C18.170166,37.2833496 18.1071289,37.2321289 17.9596191,37.2466309 C16.9553039,37.3501879 15.9428813,37.3478148 14.9390625,37.2395508 C13.4751465,37.0753906 12.0826172,36.6990234 10.8723633,35.8127441 C10.0800781,35.2325195 9.48720703,34.4921875 9.13374023,33.5708496 C9.07709961,33.4232422 9.00527344,33.3482422 8.83588867,33.3091797 C7.41894531,32.9820312 6.45576172,31.7842773 6.45102539,30.3679199 C6.44614258,28.9492187 7.40566406,27.7470215 8.81518555,27.4073242 C9.11611874,27.3342705 9.42719306,27.3123339 9.73540039,27.3424316 C9.84814453,27.3534668 9.91015625,27.3288086 9.96342773,27.2226074 C10.2911596,26.5777214 10.6676783,25.9588145 11.0896973,25.3712891 C11.1812012,25.2424805 11.1734863,25.1613281 11.085498,25.0359375 C10.2709473,23.8727539 9.58735352,22.6401855 9.15805664,21.2797852 C8.76801758,20.0437988 8.59960937,18.7867187 8.91679687,17.5084473 C9.29765625,15.9735352 10.2387695,14.8711914 11.6175293,14.1302734 C12.6785645,13.5600586 13.826709,13.2886719 15.0168945,13.1671875 C15.9888952,13.0697058 16.9681853,13.0692151 17.9402832,13.1657227 C18.1127441,13.1824707 18.205957,13.1378418 18.2691895,12.9715332 C18.3438965,12.7751465 18.5166992,12.5930664 18.5235352,12.4002441 C18.530127,12.2138184 18.280957,12.1037598 18.1647461,11.9412598 C17.4190918,10.8979492 17.3009766,9.78676758 17.9071289,8.66157227 C18.5089355,7.54453125 19.4989258,7.02426758 20.7678223,7.07773438 C21.3837402,7.10371094 21.9390625,7.33007813 22.425,7.71298828 C22.5202637,7.78808594 22.5873047,7.82480469 22.7209961,7.75917969 C24.7320801,6.7722168 26.6276367,7.03769531 28.4069824,8.32963867 C29.7175781,9.28120117 30.6446289,10.5613281 31.4219238,11.9598145 C31.6031738,12.2859375 31.774707,12.6186035 31.9297363,12.9579102 C32.0046875,13.122168 32.0881836,13.1825195 32.274707,13.1645508 C33.5024902,13.0465332 34.7292969,13.0602539 35.946582,13.2714355 C37.4629883,13.5345215 38.8662109,14.0509766 39.9741699,15.1782715 C40.8539062,16.0733398 41.3104004,17.1625488 41.4040527,18.4058105 C41.4165039,18.5708496 41.4785156,18.6404297 41.6168457,18.707959 C42.9260591,19.3456684 43.5939902,20.8266223 43.2053711,22.2300781 C42.8318359,23.6098145 41.4924805,24.5783203 40.0571289,24.4229492 C39.6252441,24.3761719 39.4248047,24.4996094 39.2295898,24.8362793 C39.007666,25.2189941 38.9875,25.2068359 39.2358398,25.5742676 C40.1427734,26.9161133 40.8827148,28.3362793 41.2392578,29.9297363 C41.5049805,31.1174805 41.5250977,32.3023437 41.0956055,33.4611328 C40.5519043,34.9278809 39.4907715,35.8952637 38.0864746,36.5166504 C36.6840332,37.1373047 35.1979492,37.3115234 33.4990234,37.3242187 Z M16.8000977,25.2076172 C16.8024446,26.6883554 16.8975855,28.1674913 17.0849609,29.6363281 C17.09596,29.76527 17.1653843,29.8820807 17.2733887,29.9533691 C17.5769531,30.171875 17.8841797,30.3864258 18.174707,30.6213379 C18.3446289,30.7587402 18.4262207,30.7366699 18.5648438,30.5644531 C19.3488281,29.5905273 20.3755859,29.194043 21.595752,29.4589355 C23.4888672,29.8699219 24.4801758,31.8487793 23.7178223,33.6299316 C23.6607422,33.7633301 23.6592285,33.8206543 23.8046875,33.8770996 C24.0723166,33.9726376 24.332322,34.088317 24.5824707,34.2231445 C24.9340332,34.4255859 25.2430664,34.3838379 25.6078613,34.224707 C28.2118376,33.0953082 30.6701786,31.6561349 32.9296875,29.9383301 C33.0439831,29.8619575 33.1160329,29.7365702 33.1244629,29.5993652 C33.1745605,29.0489258 33.2546875,28.5009766 33.297168,27.9500488 C33.4859302,25.5637322 33.4253815,23.1642377 33.1165039,20.7904785 C33.1067419,20.6695713 33.0442274,20.5590993 32.9456055,20.4884766 C30.5866442,18.6856728 28.005361,17.1941279 25.2654297,16.0506348 C25.1548347,15.9999336 25.027574,16.0002548 24.9172363,16.0515137 C22.1850659,17.1921303 19.6104791,18.6784762 17.2564941,20.4741699 C17.1633568,20.5390216 17.1035044,20.6415977 17.0928711,20.7545898 C16.9024835,22.2313716 16.8047013,23.7186207 16.8000977,25.2076172 Z M31.0224609,37.1353027 C30.9972656,37.1179688 30.9915527,37.1108887 30.9849121,37.1099121 C29.0110352,36.8052734 27.1015625,36.2644531 25.2430176,35.5390625 C25.1388843,35.4976522 25.0222731,35.5010799 24.920752,35.5485352 C23.5529569,36.0861389 22.1444523,36.513765 20.7086426,36.8273438 C20.2057129,36.9350586 19.6989746,37.0243164 19.1696289,37.1267578 C19.2933105,37.3699707 19.4027344,37.5952637 19.5211914,37.8158203 C20.2182129,39.1160645 21.0504883,40.3094238 22.2220703,41.235791 C23.9720703,42.6195313 25.936377,42.6821289 27.7597656,41.397168 C28.8937012,40.5980957 29.703125,39.513916 30.3972656,38.334082 C30.629914,37.9476115 30.8387024,37.5472707 31.0224609,37.1353027 Z M16.4677734,14.1057129 C15.1835938,14.077832 13.9186035,14.2100098 12.7149414,14.6929688 C11.6437988,15.1226563 10.7526367,15.7736816 10.2092773,16.8253418 C9.68139648,17.8470215 9.63569336,18.9284668 9.84628906,20.0325684 C10.1424316,21.5853027 10.8619141,22.9521484 11.7248047,24.254834 C11.8112305,24.3853027 11.8525391,24.3471191 11.9305664,24.250293 C13.1561523,22.7294434 14.5567383,21.3854492 16.0760742,20.1623535 C16.1604548,20.1006583 16.2159785,20.007178 16.2297852,19.9035645 C16.5381836,17.9825195 16.9956543,16.0998535 17.7040527,14.2837891 C17.7568848,14.1483398 17.7227051,14.1051758 17.5897949,14.1053711 C17.215804,14.1060872 16.8417969,14.1062012 16.4677734,14.1057129 Z M38.370166,26.0212402 C37.0986816,27.6163574 35.6711914,28.989209 34.1234863,30.2399902 C34.0420504,30.3058995 33.9910461,30.4021939 33.9822754,30.5065918 C33.6798828,32.4193848 33.2303223,34.2947266 32.5271973,36.1030762 C32.4637207,36.2660645 32.4907715,36.3069824 32.663916,36.3149902 C33.3631836,36.347168 34.062207,36.3638184 34.760498,36.3080078 C35.8523438,36.220459 36.9194336,36.0184082 37.9081055,35.5249512 C39.5625,34.6992188 40.4618164,33.3800781 40.4407227,31.5033691 C40.4173828,29.4391602 39.4762695,27.7151367 38.370166,26.0212402 Z M31.0130859,13.3019043 C30.8268181,12.8967768 30.6194203,12.5017024 30.391748,12.1183105 C29.6663086,10.8886719 28.8167969,9.76445313 27.6105957,8.9609375 C26.2965332,8.0855957 24.9028809,7.87749023 23.4194336,8.50141602 C23.2600586,8.56845703 23.2092285,8.62270508 23.2919922,8.80952148 C23.811377,9.98139648 23.6805176,11.0958984 22.8444824,12.0631348 C22.0015625,13.0383789 20.909668,13.3364258 19.6682129,12.9725586 C19.4171875,12.8989746 19.3147949,12.9542969 19.2491211,13.1737793 C19.2365234,13.215918 19.186084,13.2521973 19.2251465,13.3101074 C21.1724121,13.60625 23.057373,14.146875 24.895752,14.8555664 C25.0201213,14.9095547 25.1612553,14.9098374 25.2858398,14.8563477 C27.1317871,14.1449707 29.0244141,13.6021973 31.0130859,13.3019043 Z M16.4581543,36.3111328 C16.8158203,36.3111328 17.1735352,36.3094727 17.5312012,36.3119141 C17.6791504,36.3129395 17.7541016,36.2972656 17.6810547,36.1097656 C16.9790039,34.3093262 16.5312988,32.4414062 16.2275879,30.5366211 C16.2142941,30.4170012 16.1525209,30.3080685 16.0566895,30.2352539 C14.5446289,29.0171387 13.1505859,27.6784668 11.9318848,26.1634277 C11.8297363,26.0364746 11.7887695,26.0611328 11.7125,26.1786621 C11.4382161,26.6011882 11.1764486,27.0311849 10.9271973,27.4686523 C10.8397949,27.6224609 10.876416,27.6725098 11.0118164,27.7572754 C12.0901855,28.4319336 12.6165527,29.418457 12.4770996,30.6771973 C12.3294434,32.0097656 11.5515137,32.8793457 10.2676758,33.2730957 C10.0827148,33.329834 10.1020996,33.3848633 10.1689941,33.5182617 C10.6328613,34.4436523 11.3678711,35.0842773 12.2847656,35.529248 C13.6029297,36.169043 15.0172363,36.329248 16.4581543,36.3111328 Z M38.3499023,24.3634766 C38.6775391,24.0185547 38.6775391,24.0185547 38.3547852,23.7507813 C37.3860383,22.943115 37.0187974,21.6198888 37.4327323,20.4284808 C37.8466673,19.2370727 38.9552299,18.4265899 40.2160645,18.3935547 C40.2959961,18.3907715 40.4491211,18.470166 40.41875,18.2634766 C40.3303711,17.6624512 40.158252,17.0910156 39.8348145,16.5723633 C39.1769043,15.5172852 38.1869141,14.9137207 37.0369629,14.5374512 C35.5983887,14.066748 34.1162109,14.0196289 32.6216797,14.1018066 C32.4648438,14.1104492 32.4543945,14.1615723 32.5072266,14.2975586 C33.2103516,16.1066895 33.6671387,17.9811523 33.9737793,19.8941406 C33.9884903,20.0137498 34.0514024,20.1221659 34.1479492,20.1942871 C34.8893229,20.7921387 35.6014486,21.4231934 36.2843262,22.0874512 C37.0171312,22.8047304 37.7068614,23.5647331 38.3499023,24.3634766 Z M26.4393066,34.9204102 C26.4630462,34.9382659 26.4883623,34.953923 26.5149414,34.9671875 C28.0588862,35.5178613 29.6520124,35.9194334 31.2725098,36.1664063 C31.4115723,36.1874512 31.4711426,36.1437988 31.5215332,36.0124023 C31.7151855,35.5049316 31.9019531,34.9953125 32.0651855,34.4772949 C32.4029004,33.4039994 32.6719021,32.3102809 32.8705566,31.2027832 C30.8597541,32.6589309 28.7046941,33.9046776 26.4393066,34.9204102 Z M16.021582,28.9470703 C15.7631208,26.4737318 15.7626954,23.9802137 16.0203125,21.5067871 C15.9875992,21.5212825 15.9560593,21.5382931 15.9259766,21.557666 C14.6807842,22.6189526 13.5391109,23.7960059 12.5163086,25.072998 C12.4207031,25.1932617 12.4532715,25.2577148 12.532666,25.357959 C13.2727245,26.2874322 14.079096,27.1621138 14.945459,27.9751465 C15.2804199,28.2910156 15.6285156,28.5928711 16.021582,28.9470703 Z M32.829541,19.1819824 C32.8393066,19.1469727 32.8485352,19.1319824 32.8460938,19.1191895 C32.5485534,17.5059824 32.0987716,15.92461 31.5027832,14.3962891 C31.442627,14.2436523 31.3604004,14.2325684 31.2263184,14.2540039 C30.4240234,14.3820801 29.6268066,14.5350098 28.8400879,14.7384766 C28.0205086,14.9451111 27.2121415,15.1939121 26.4182129,15.4838867 C28.6761236,16.4941704 30.8244718,17.7333516 32.829541,19.1819824 Z M17.3481445,19.1868652 C19.3463769,17.7426164 21.4868751,16.5062058 23.7363281,15.496875 C23.7147949,15.478418 23.7047852,15.4639648 23.6913086,15.459082 C22.1402391,14.8989839 20.5378028,14.4929246 18.9071777,14.2467773 C18.7911133,14.2290527 18.7494629,14.280957 18.7126465,14.3742187 C18.1023935,15.9302119 17.645395,17.5420288 17.3481445,19.1867676 L17.3481445,19.1868652 Z M34.1897949,28.8949707 C34.2513184,28.852002 34.2789551,28.836084 34.3027344,28.815625 C35.5329732,27.7632997 36.6616001,26.5976939 37.6737305,25.3341797 C37.7766113,25.2051758 37.7167969,25.1406738 37.6436035,25.0479492 C37.0732941,24.327505 36.4607949,23.6414883 35.8093262,22.9935059 C35.2990234,22.4845703 34.7757812,21.9888184 34.1826172,21.5005859 C34.4414379,23.9584621 34.4438434,26.4365967 34.1897949,28.8949707 Z M42.3383301,21.4104492 C42.3335759,20.5807501 41.8291716,19.8357268 41.0605815,19.5231686 C40.2919914,19.2106105 39.410785,19.3921553 38.8283239,19.983055 C38.2458629,20.5739547 38.0770112,21.4576811 38.4005916,22.2216962 C38.724172,22.9857113 39.476373,23.4793478 40.3060547,23.472168 C41.4350923,23.4605252 42.3429274,22.5395375 42.3383301,21.4104492 Z M9.48081055,32.407666 C10.3105171,32.406413 11.0576585,31.9051633 11.3734605,31.1379061 C11.6892626,30.370649 11.5114485,29.4886889 10.923024,28.9037349 C10.3345996,28.318781 9.45160303,28.1461872 8.6862274,28.4665224 C7.92085178,28.7868576 7.42403052,29.536951 7.42768555,30.3666504 C7.43442546,31.4957947 8.35164617,32.4076056 9.48081055,32.407666 Z M20.9494629,34.4588379 C21.7793425,34.4600028 22.5280943,33.9608197 22.8461819,33.19432 C23.1642694,32.4278204 22.9889629,31.5451649 22.4020998,30.9583998 C21.8152368,30.3716347 20.9325521,30.1964755 20.1661055,30.5146911 C19.3996589,30.8329066 18.9006008,31.5817417 18.9019043,32.4116211 C18.9052837,33.5409983 19.8200851,34.4556471 20.9494629,34.4588379 Z M18.5112793,10.0936035 C18.5111838,10.9234791 19.0113257,11.6715837 19.7782283,11.9886863 C20.5451308,12.3057889 21.4275555,12.1293546 22.013568,11.5417468 C22.5995804,10.954139 22.7736149,10.0712378 22.4544285,9.30520025 C22.1352421,8.53916268 21.3857805,8.0410565 20.5559082,8.0434082 C19.4264888,8.04824111 18.5129878,8.96427274 18.5112793,10.0937012 L18.5112793,10.0936035 Z M23.7628906,34.9321289 C23.5538574,34.8344727 23.3806152,34.7635742 23.2177734,34.6739746 C23.0928711,34.6052246 23.0132813,34.6233887 22.9013672,34.7170898 C22.2555891,35.2676135 21.4073896,35.5198934 20.565714,35.4117829 C19.7240384,35.3036724 18.9671299,34.8452216 18.4814453,34.1493652 C18.0210938,33.5003906 17.8476074,32.7730957 17.9574707,31.978418 C17.9721191,31.8726074 18.0722168,31.7421875 17.9359375,31.642627 C17.7851074,31.5324219 17.6304199,31.4277832 17.4779785,31.3195801 C17.4437988,31.2954102 17.4056152,31.2675781 17.367627,31.2915039 C17.3262695,31.3175781 17.3529785,31.3577148 17.3608887,31.3976563 C17.6754395,32.9586426 18.0863281,34.4916504 18.6678223,35.9766602 C18.7273438,36.1286621 18.7927246,36.1907715 18.9677734,36.1607422 C19.6958984,36.0358887 20.4225098,35.905127 21.1395508,35.7261719 C22.0274611,35.5082038 22.9031454,35.2431482 23.7628906,34.9321289 Z" id="Shape" fill="#FFFFFF"></path>
                    <path d="M42.3383301,21.4104492 C42.3430501,22.2401504 41.8471835,22.990886 41.0822099,23.3121987 C40.3172364,23.6335114 39.4340128,23.4620367 38.8448441,22.8778221 C38.2556755,22.2936075 38.076749,21.4118633 38.3915909,20.6442039 C38.7064328,19.8765444 39.4529545,19.3743564 40.282666,19.3720703 C41.411733,19.3708851 42.3299816,20.2814125 42.3383301,21.4104492 Z M9.48081055,32.407666 C8.65108908,32.4089101 7.90243205,31.9098936 7.58433185,31.1435703 C7.26623164,30.3772469 7.44142055,29.4947427 8.02811589,28.9080334 C8.61481123,28.321324 9.49731125,28.1461141 10.2636422,28.464196 C11.0299732,28.7822779 11.5290075,29.530923 11.5277832,30.3606445 C11.5240852,31.4896289 10.6097948,32.4039411 9.48081055,32.407666 Z" id="Shape"></path>
                    <path d="M20.9494629,34.4588379 C20.1195983,34.4576047 19.3723025,33.9562777 19.0564216,33.1888821 C18.7405408,32.4214865 18.9183672,31.5393541 19.5068894,30.9542744 C20.0954117,30.3691946 20.9785722,30.1965464 21.7441014,30.5169238 C22.5096307,30.8373012 23.006565,31.5875253 23.0029297,32.4173828 C22.9969097,33.5470334 22.0791294,34.4594452 20.9494629,34.4588379 Z M18.5112793,10.0937012 C18.5114216,9.26383016 19.0117724,8.51587209 19.7787596,8.19898632 C20.5457468,7.88210054 21.4281169,8.05877837 22.013965,8.64654363 C22.599813,9.23430889 22.773607,10.1172516 22.454217,10.8831994 C22.134827,11.6491471 21.3852381,12.1470515 20.5553711,12.1444824 C19.4259269,12.1394604 18.5126111,11.2231558 18.5112793,10.0937012 Z" id="Shape"></path>
                    <path d="M23.7628906,34.9321289 C22.9031125,35.243135 22.0273955,35.5081743 21.1394531,35.726123 C20.4224121,35.905127 19.6958008,36.0358887 18.9676758,36.1606934 C18.792627,36.1907227 18.7272461,36.1285645 18.6677246,35.9766113 C18.0862305,34.4916016 17.6753418,32.9585938 17.360791,31.3976074 C17.3527344,31.357666 17.3262207,31.3175293 17.3675293,31.2914551 C17.4055176,31.2675293 17.4437988,31.2953613 17.4778809,31.3195313 C17.6303223,31.4275391 17.7850098,31.5324219 17.9358398,31.6425781 C18.0721191,31.7421387 17.9720215,31.8725586 17.957373,31.9783691 C17.8475098,32.7730469 18.0208496,33.5003418 18.4813477,34.1493164 C18.9670244,34.8451956 19.723939,35.3036669 20.5656276,35.4117872 C21.4073162,35.5199074 22.2555317,35.2676253 22.9013184,34.7170898 C23.0132324,34.6233398 23.0928223,34.6052246 23.2177246,34.6739746 C23.3806152,34.763623 23.5538574,34.8344238 23.7628906,34.9321289 Z" id="Shape"></path>
                    <path d="M25.0708008,29.6240234 C22.6451172,29.6001953 20.6855469,27.6119629 20.7092285,25.198584 C20.7330078,22.772998 22.7216797,20.8129883 25.134668,20.8369629 C27.5604492,20.861084 29.5203125,22.8496094 29.4962891,25.2624023 C29.4720703,27.6885254 27.4839844,29.6479004 25.0708008,29.6240234 Z M25.1061523,28.6477539 C26.4888444,28.6463656 27.7344375,27.811878 28.2617235,26.5336727 C28.7890095,25.2554675 28.4940617,23.785475 27.5145064,22.8096111 C26.534951,21.8337471 25.0638554,21.5443515 23.7876501,22.0764597 C22.5114447,22.6085679 21.6816659,23.8573028 21.685498,25.2399902 C21.6957978,27.1228156 23.2233016,28.6446285 25.1061523,28.6479004 L25.1061523,28.6477539 Z" id="Shape" fill="#FFFFFF"></path>
                </g>
            </g>
        </g>
    </g>
</svg>