<?xml version="1.0" encoding="UTF-8"?>
<svg width="220px" height="56px" viewBox="0 0 220 56" version="1.1" xmlns="http://www.w3.org/2000/svg" xmlns:xlink="http://www.w3.org/1999/xlink">
    <!-- Generator: Sketch 50 (54983) - http://www.bohemiancoding.com/sketch -->
    <title>神舟科技LOGO-01</title>
    <desc>Created with Sketch.</desc>
    <defs></defs>
    <g id="Page-1" stroke="none" stroke-width="1" fill="none" fill-rule="evenodd">
        <g id="首页-copy" transform="translate(-136.000000, -12.000000)" fill-rule="nonzero">
            <g id="神舟科技LOGO-01" transform="translate(136.000000, 12.000000)">
                <path d="M82.692159,18.2778887 C83.4234157,18.2778887 84.0360902,18.2972896 84.6487648,18.2778887 C84.9452202,18.2584879 85.0638024,18.374893 85.1428571,18.6271041 C85.8938776,20.7223966 86.6646617,22.8370899 87.4156821,24.9323823 C87.4552095,25.0487874 87.5145005,25.1845934 87.6330827,25.2815977 C87.6330827,20.1985735 87.6330827,15.0961484 87.6330827,9.9743224 C90.2221267,9.9743224 92.7716434,9.9743224 95.3804511,9.9743224 C95.3804511,9.08188302 95.3804511,8.20884451 95.3804511,7.31640514 C97.3370569,7.31640514 99.2343716,7.31640514 101.190977,7.31640514 C101.190977,8.18944365 101.190977,9.04308131 101.190977,9.9743224 C103.740494,9.9743224 106.270247,9.9743224 108.8,9.9743224 C108.8,17.0556348 108.8,24.0981455 108.8,31.1600571 C106.863158,31.1600571 104.965843,31.1600571 103.009237,31.1600571 C103.009237,28.2305278 103.009237,25.3398003 103.009237,22.3908702 C102.396563,22.3908702 101.843179,22.3908702 101.250269,22.3908702 C101.250269,24.3115549 101.250269,26.2516405 101.250269,28.2305278 C101.764125,28.2305278 102.277981,28.2305278 102.851128,28.2305278 C102.791837,28.3857347 102.772073,28.5021398 102.712782,28.6185449 C102.43609,29.3169757 102.139635,30.0154066 101.862943,30.7138374 C101.744361,30.9854494 101.665306,31.2764622 101.230505,31.1794579 C101.230505,32.246505 101.230505,33.2941512 101.230505,34.3611983 C99.2936627,34.3611983 97.3765843,34.3611983 95.4397422,34.3611983 C95.4397422,33.3135521 95.4397422,32.2853067 95.4397422,31.1794579 C92.8309345,31.1794579 90.2616541,31.1794579 87.6726101,31.1794579 C87.6726101,29.4721826 87.6726101,27.8231098 87.6726101,26.1352354 C86.0519871,26.1352354 84.4511278,26.1352354 82.8502685,26.1352354 C82.494522,25.1457917 82.1387755,24.1951498 81.783029,23.2445078 C81.7435016,23.2445078 81.7237379,23.2445078 81.6842105,23.2639087 C81.6842105,26.9694722 81.6842105,30.6750357 81.6842105,34.4 C79.7473684,34.4 77.8698174,34.4 75.952739,34.4 C75.952739,30.9272468 75.952739,27.4544936 75.952739,23.9623395 C74.6483351,24.5249643 73.363695,25.0681883 72.0395274,25.6308131 C72.0197637,25.4174037 72.0197637,25.3203994 72.0197637,25.2039943 C72.0197637,24.0205421 72.0197637,22.8370899 72.0197637,21.6342368 C72.0197637,21.3626248 72.1185822,21.2462197 72.3359828,21.1298146 C74.786681,19.8687589 76.9409237,18.239087 78.6010741,16.0273894 C79.2137487,15.1931526 79.7276047,14.3201141 80.1228786,13.3112696 C79.9450054,13.2918688 79.8066595,13.2918688 79.6485499,13.2918688 C77.6128894,13.2918688 75.5969925,13.2918688 73.5613319,13.2918688 C73.0474758,13.2918688 72.5533835,13.253067 72.0395274,13.2336662 C72.0197637,12.7292439 72,12.2442225 72,11.7398003 C72,11.2547789 72,10.7891583 72,10.2653352 C72.1581096,10.2459344 72.2964554,10.2459344 72.4348013,10.2459344 C73.6996778,10.2459344 74.9447905,10.2265335 76.209667,10.2459344 C76.5061224,10.2459344 76.6247046,10.168331 76.6247046,9.85791726 C76.6049409,9.12068474 76.6247046,8.38345221 76.6247046,7.66562054 C76.6247046,7.52981455 76.6247046,7.39400856 76.6247046,7.2 C77.5535983,7.2 78.4429646,7.2 79.3125671,7.2 C80.2019334,7.2 81.0912997,7.2 82.0201933,7.2 C82.0201933,8.20884451 82.0201933,9.19828816 82.0201933,10.2459344 C83.2850698,10.2459344 84.4906552,10.2459344 85.7555317,10.2459344 C85.6567132,11.7398003 85.3404941,13.1172611 84.826638,14.4559201 C84.2732546,15.7945792 83.5815252,17.036234 82.692159,18.2778887 Z M93.5621912,12.9426534 C93.5621912,14.9409415 93.5621912,16.900428 93.5621912,18.8599144 C94.1748657,18.8599144 94.7875403,18.8599144 95.3804511,18.8599144 C95.3804511,16.8810271 95.3804511,14.9215407 95.3804511,12.9426534 C94.7677766,12.9426534 94.1748657,12.9426534 93.5621912,12.9426534 Z M95.3804511,22.3520685 C94.8468314,22.3520685 94.352739,22.3714693 93.8586466,22.3520685 C93.6017186,22.3520685 93.5226638,22.4296719 93.5226638,22.6624822 C93.5424275,23.3997147 93.5226638,24.1563481 93.5226638,24.8935806 C93.5226638,25.9024251 93.5226638,26.8918688 93.5226638,27.9007133 C93.5226638,28.0365193 93.4633727,28.2305278 93.7203008,28.2305278 C94.2539205,28.2305278 94.807304,28.2305278 95.3606874,28.2305278 C95.3804511,26.2710414 95.3804511,24.3309558 95.3804511,22.3520685 Z M102.96971,18.8793153 C102.96971,16.900428 102.96971,14.9215407 102.96971,12.9620542 C102.376799,12.9620542 101.803652,12.9620542 101.230505,12.9620542 C101.230505,14.9603424 101.230505,16.9198288 101.230505,18.8793153 C101.823416,18.8793153 102.376799,18.8793153 102.96971,18.8793153 Z" id="Shape" fill="#474747"></path>
                <path d="M118.468461,34.4 C115.503983,34.4 112.578256,34.4 109.633154,34.4 C109.633154,33.0388188 109.633154,31.6776376 109.633154,30.2581201 C110.195048,30.2581201 110.718192,30.2581201 111.280086,30.2581201 C111.280086,28.158012 111.280086,26.1162402 111.280086,23.9966866 C110.446932,23.9966866 109.633154,23.9966866 108.8,23.9966866 C108.8,22.7716235 108.8,21.6243423 108.8,20.4187246 C109.613778,20.4187246 110.427557,20.4187246 111.280086,20.4187246 C111.280086,16.7435354 111.280086,13.1072371 111.280086,9.41260244 C111.996986,9.41260244 112.69451,9.41260244 113.372659,9.41260244 C113.798924,9.41260244 114.283315,9.52927511 114.612702,9.3542661 C114.942088,9.17925709 115.097094,8.69312095 115.329602,8.34310293 C115.56211,7.99308491 115.717115,7.48750332 116.065877,7.31249431 C116.395264,7.11803986 116.899031,7.23471253 117.325296,7.23471253 C119.243488,7.23471253 121.161679,7.23471253 123.079871,7.23471253 C123.196125,7.23471253 123.331755,7.23471253 123.525511,7.23471253 C123.060495,7.97363946 122.63423,8.65423006 122.149839,9.41260244 C125.618084,9.41260244 129.028202,9.41260244 132.418945,9.41260244 C135.809688,9.41260244 139.200431,9.41260244 142.6493,9.41260244 C142.6493,13.0683462 142.6493,16.7046445 142.6493,20.3798337 C143.385576,20.3798337 144.0831,20.3798337 144.8,20.3798337 C144.8,21.5854514 144.8,22.7521781 144.8,23.9772412 C144.102476,23.9772412 143.385576,23.9772412 142.668676,23.9772412 C142.668676,27.4385305 142.668676,30.8609289 142.668676,34.3027728 C142.533046,34.3027728 142.416792,34.3222182 142.300538,34.3222182 C139.587944,34.3222182 136.87535,34.3222182 134.182131,34.3222182 C133.949623,34.3222182 133.813994,34.2638819 133.69774,34.0305365 C133.193972,33.0193734 132.670829,32.0276556 132.12831,30.9581561 C133.329602,30.9581561 134.472766,30.9581561 135.615931,30.9581561 C135.615931,28.6247027 135.615931,26.3301401 135.615931,23.9966866 C135.480301,23.9966866 135.344672,23.9772412 135.209042,23.9772412 C129.764478,23.9772412 124.319914,23.9772412 118.894726,23.9772412 C118.545963,23.9772412 118.468461,24.0744684 118.468461,24.405041 C118.487836,27.5746486 118.468461,30.7248108 118.468461,33.8944184 C118.468461,34.0694274 118.468461,34.224991 118.468461,34.4 Z M135.615931,20.3992792 C135.615931,17.8908167 135.615931,15.4017997 135.615931,12.9322281 C129.900108,12.9322281 124.20366,12.9322281 118.507212,12.9322281 C118.507212,15.4212451 118.507212,17.9102622 118.507212,20.3992792 C124.20366,20.3992792 129.900108,20.3992792 135.615931,20.3992792 Z" id="Shape" fill="#474747"></path>
                <path d="M2.0436027,39.2 C-0.961792054,31.0293663 -0.744296381,23.0565688 3.30903207,15.3409583 C8.44983889,5.58763524 17.3869338,1.72982998 23.2,0.8 C22.8638703,1.35394127 22.5277406,1.90788253 22.2113833,2.44204019 C21.0250433,4.38083462 19.8387032,6.29984544 18.6523632,8.23863988 C17.8219252,9.58392581 16.9914871,10.9292117 16.1610491,12.2744977 C15.3503834,13.6 14.5397177,14.9057187 13.7488244,16.231221 C13.6499627,16.4092736 13.610418,16.6268934 13.610418,16.8247295 C13.610418,21.6717156 13.610418,26.5384853 13.610418,31.3854714 C13.610418,31.6822257 13.5313287,31.8602782 13.254516,32.0383308 C10.9806976,33.4825348 8.7464239,34.9465224 6.4726055,36.41051 C5.14785913,37.2612056 3.80334042,38.1316847 2.47859405,38.9823802 C2.35996004,39.0615147 2.24132604,39.1010819 2.0436027,39.2 Z" id="Shape" fill="#AE0000"></path>
                <path d="M33.6,0.8 C34.0631269,0.897242848 34.4683629,0.955588557 34.8735989,1.05283141 C37.1313423,1.61683993 39.3118979,2.39478271 41.3573749,3.50335119 C42.8046463,4.28129397 44.1747299,5.17592818 45.4676257,6.20670237 C46.586849,7.10133658 47.6288844,8.07376506 48.613029,9.12398783 C49.8673309,10.4464906 50.9479602,11.9051333 51.9128078,13.4610189 C53.070625,15.3669787 54.0547695,17.3507328 54.672272,19.4900755 C55.077508,20.8709239 55.4055562,22.2712209 55.6950105,23.671518 C55.8493861,24.4494607 55.88798,25.2663007 55.9265739,26.0831406 C55.9844648,27.1139148 56.0230587,28.144689 55.9844648,29.1754632 C55.9458709,30.7119002 55.7914952,32.2288886 55.4441501,33.7264285 C55.096805,35.2434169 54.7108659,36.7409568 54.1319573,38.1801509 C54.0354726,38.4329823 53.9775817,38.4524309 53.7460183,38.3162909 C52.1057773,37.227171 50.4655364,36.1769483 48.8252954,35.1072769 C46.9341941,33.882017 45.0430928,32.6567571 43.1519914,31.4314973 C42.939725,31.2953573 42.8432402,31.1592173 42.8432402,30.8869373 C42.8432402,26.1220377 42.8432402,21.3765867 42.8625371,16.6116872 C42.8625371,16.0476786 42.5537859,15.6587072 42.3029255,15.2308387 C41.1451084,13.3054303 39.9872912,11.3994705 38.8101771,9.49351065 C37.7488448,7.74313938 36.6682154,6.01221668 35.606883,4.2618454 C34.9700836,3.21162264 34.3139872,2.16139988 33.6771878,1.11117711 C33.6578909,1.07227998 33.6578909,0.975037127 33.6,0.8 Z" id="Shape" fill="#AE0000"></path>
                <path d="M196.691595,35.2 C196.691595,35.0426609 196.691595,34.9246565 196.691595,34.8066522 C196.691595,33.6462762 196.691595,32.4662328 196.691595,31.3058568 C196.691595,31.0305134 196.749228,30.9321764 197.037393,30.8535069 C198.900858,30.4404917 200.70669,29.85047 202.435678,29.0244396 C202.589365,28.9457701 202.723842,28.8867679 202.839108,28.8080983 C201.878559,27.8247289 200.898799,26.8610268 199.976672,25.8579899 C199.054545,24.8352856 198.305317,23.6749096 197.709777,22.3768619 C197.844254,22.3768619 197.95952,22.3571945 198.055575,22.3571945 C199.880617,22.3571945 201.70566,22.3571945 203.511492,22.3571945 C203.742024,22.3571945 203.876501,22.4358641 204.010978,22.632538 C204.894683,23.9109183 205.989708,24.9532899 207.219211,25.8973247 C208.698456,24.6189443 210.004803,23.1832249 210.92693,21.3541576 C210.715609,21.3541576 210.581132,21.3541576 210.446655,21.3541576 C206.047341,21.3541576 201.667238,21.3541576 197.267925,21.3541576 C196.902916,21.3541576 196.826072,21.2558207 196.826072,20.9018077 C196.845283,20.0757773 196.845283,19.2497469 196.826072,18.4237166 C196.826072,18.1287057 196.902916,18.0500362 197.191081,18.0500362 C199.34271,18.0697035 201.475129,18.0500362 203.626758,18.0500362 C203.761235,18.0500362 203.895712,18.0500362 204.087822,18.0500362 C204.087822,17.637021 204.087822,17.2633406 204.087822,16.8896602 C204.087822,16.1422993 204.068611,15.3949385 204.087822,14.6672451 C204.087822,14.3525669 204.010978,14.2738973 203.703602,14.2738973 C201.263808,14.2935647 198.843225,14.2738973 196.403431,14.2738973 C196.268954,14.2738973 196.153688,14.2738973 196,14.2738973 C196,13.1528561 196,12.0514823 196,10.9107737 C198.670326,10.9107737 201.340652,10.9107737 204.068611,10.9107737 C204.068611,9.92740419 204.068611,8.98336949 204.068611,8 C206.143396,8 208.17976,8 210.273756,8 C210.273756,8.21634129 210.273756,8.43268257 210.273756,8.64902386 C210.273756,9.25871294 210.292967,9.86840202 210.273756,10.4977585 C210.254545,10.8124367 210.3506,10.8911063 210.657976,10.8911063 C213.09777,10.8714389 215.518353,10.8911063 217.958148,10.8911063 C218.092624,10.8911063 218.227101,10.8911063 218.4,10.8911063 C218.4,12.0121475 218.4,13.1135213 218.4,14.2738973 C218.284734,14.2738973 218.150257,14.2738973 218.01578,14.2738973 C215.575986,14.2738973 213.136192,14.2738973 210.677187,14.2738973 C210.3506,14.2738973 210.273756,14.3722343 210.273756,14.6869125 C210.292967,15.670282 210.292967,16.6733189 210.273756,17.6566884 C210.273756,17.9516992 210.3506,18.0500362 210.657976,18.0500362 C213.040137,18.0303688 215.403087,18.0500362 217.785249,18.0500362 C217.919726,18.0500362 218.054202,18.0500362 218.227101,18.0500362 C217.881304,20.213449 217.074443,22.1408532 215.940995,23.9502531 C214.807547,25.7399855 213.424357,27.2937093 211.810635,28.7097614 C211.964322,28.7884309 212.060377,28.8474331 212.175643,28.8867679 C214.019897,29.7324657 215.940995,30.4011569 217.919726,30.8338395 C218.073413,30.8731743 218.227101,30.8731743 218.227101,31.1091829 C218.227101,32.4465654 218.227101,33.7642805 218.227101,35.1803326 C217.631561,35.0819957 217.055232,35.0229935 216.478902,34.9049892 C213.385935,34.3346349 210.408233,33.3512654 207.603431,31.8762111 C207.488165,31.817209 207.276844,31.817209 207.161578,31.8762111 C204.010978,33.5676067 200.649057,34.5903109 197.152659,35.1213304 C197.037393,35.1803326 196.883705,35.1803326 196.691595,35.2 Z" id="Shape" fill="#474747"></path>
                <path d="M42.4,52.0396604 C34.3352093,57.0970616 22.4949897,57.5316821 13.6,52.0594159 C13.9755662,51.7433283 14.3511325,51.4074853 14.7266987,51.0913977 C15.2801647,50.6370218 15.8138641,50.1826459 16.3673301,49.7282701 C17.2172958,49.017073 18.0672615,48.305876 18.9172272,47.5946789 C19.5892931,47.0217702 20.261359,46.4488615 20.9334248,45.8957082 C21.6054907,45.3227995 22.2973233,44.7696462 22.9891558,44.1967375 C23.5228552,43.7423616 24.0367879,43.2879857 24.5704873,42.8533653 C25.4006863,42.1619237 26.250652,41.4704822 27.0808511,40.7592851 C27.2982841,40.5617304 27.5354839,40.3839311 27.7331503,40.1666209 C27.9110501,39.9888217 28.0889499,39.9295552 28.306383,40.1073545 C28.6819492,40.4431975 29.0772821,40.7395296 29.472615,41.0753727 C30.3621139,41.8260807 31.2516129,42.5570332 32.1411119,43.3077412 C32.7934111,43.8608945 33.465477,44.4338032 34.1177763,44.9869564 C34.9479753,45.678398 35.797941,46.3698396 36.62814,47.0810366 C37.3002059,47.6539453 37.9525051,48.2268541 38.624571,48.7997628 C39.4745367,49.5109598 40.3047358,50.2024014 41.1547014,50.9135985 C41.510501,51.2099306 41.846534,51.5062627 42.2023336,51.8025948 C42.2616335,51.8618612 42.3209334,51.9606386 42.4,52.0396604 Z" id="Shape" fill="#AE0000"></path>
                <path d="M185.580488,24.9118156 C184.507317,25.1469741 183.453659,25.3821326 182.4,25.6368876 C182.4,24.3631124 182.4,23.1089337 182.4,21.815562 C183.37561,21.6 184.331707,21.3648415 185.307317,21.1492795 C185.521951,21.1100865 185.619512,21.0317003 185.619512,20.7769452 C185.619512,18.7585014 185.619512,16.7596542 185.619512,14.7412104 C185.619512,14.6628242 185.6,14.6040346 185.6,14.4864553 C184.546341,14.4864553 183.492683,14.4864553 182.419512,14.4864553 C182.419512,13.3498559 182.419512,12.2524496 182.419512,11.1158501 C182.556098,11.1158501 182.692683,11.0962536 182.829268,11.0962536 C183.629268,11.0962536 184.44878,11.0766571 185.24878,11.0962536 C185.541463,11.0962536 185.639024,10.9982709 185.619512,10.7043228 C185.6,9.9204611 185.619512,9.15619597 185.619512,8.37233429 C185.619512,8.25475504 185.639024,8.13717579 185.639024,8 C187.82439,8 190.009756,8 192.234146,8 C192.234146,8.19596542 192.234146,8.39193084 192.234146,8.58789625 C192.234146,9.27377522 192.253659,9.95965418 192.234146,10.6259366 C192.214634,10.9590778 192.312195,11.0766571 192.663415,11.0766571 C193.365854,11.0570605 194.068293,11.0766571 194.770732,11.0766571 C194.887805,11.0766571 195.02439,11.0962536 195.160976,11.0962536 C195.160976,12.2132565 195.160976,13.3302594 195.160976,14.4668588 C194.185366,14.4668588 193.24878,14.4668588 192.273171,14.4668588 C192.273171,16.1717579 192.273171,17.837464 192.273171,19.5423631 C193.24878,19.3268012 194.185366,19.1112392 195.180488,18.8956772 C195.180488,19.0720461 195.180488,19.1896254 195.180488,19.3072046 C195.180488,20.2870317 195.160976,21.2864553 195.2,22.2662824 C195.2,22.5994236 195.082927,22.7170029 194.790244,22.7757925 C194.068293,22.9325648 193.365854,23.1285303 192.643902,23.2657061 C192.312195,23.3244957 192.253659,23.481268 192.253659,23.7752161 C192.273171,27.4201729 192.253659,31.0651297 192.253659,34.7100865 C192.253659,34.8668588 192.253659,35.0040346 192.253659,35.1804035 C192.078049,35.1804035 191.960976,35.2 191.843902,35.2 C189.580488,35.2 187.317073,35.2 185.073171,35.2 C184.8,35.2 184.663415,35.1020173 184.565854,34.8668588 C184.214634,34.043804 183.843902,33.2207493 183.473171,32.3976945 C183.434146,32.2997118 183.395122,32.1821326 183.336585,32.0449568 C184.117073,32.0449568 184.878049,32.0449568 185.639024,32.0449568 C185.580488,29.7129683 185.580488,27.3613833 185.580488,24.9118156 Z" id="Shape" fill="#474747"></path>
                <path d="M145.6,16.9740146 C145.6,15.8820438 145.6,14.829781 145.6,13.7378102 C145.737423,13.7378102 145.855215,13.7378102 145.992638,13.7378102 C147.327607,13.7378102 148.662577,13.7378102 149.977914,13.7378102 C150.252761,13.7378102 150.370552,13.6782482 150.370552,13.3605839 C150.35092,12.6855474 150.35092,12.030365 150.370552,11.3553285 C150.390184,11.0376642 150.252761,10.9781022 149.977914,10.9781022 C148.584049,10.9979562 147.170552,10.9781022 145.737423,10.9781022 C145.737423,9.98540146 145.737423,9.01255474 145.737423,8 C150.939877,8 156.142331,8 161.384049,8 C161.325153,8.11912409 161.28589,8.19854015 161.246626,8.29781022 C160.77546,9.11182482 160.304294,9.92583942 159.852761,10.739854 C159.754601,10.9185401 159.63681,10.9979562 159.401227,10.9979562 C158.557055,10.9781022 157.712883,10.9979562 156.829448,10.9979562 C156.829448,11.1369343 156.809816,11.2560584 156.809816,11.3553285 C156.809816,12.0105109 156.829448,12.6656934 156.809816,13.3208759 C156.790184,13.6583942 156.927607,13.7378102 157.222086,13.7378102 C158.537423,13.7179562 159.852761,13.7378102 161.18773,13.7378102 C161.325153,13.7378102 161.442945,13.7378102 161.6,13.7378102 C161.6,14.809927 161.6,15.8423358 161.6,16.9541606 C160.029448,16.9541606 158.439264,16.9541606 156.829448,16.9541606 C156.829448,23.0691971 156.829448,29.1246715 156.829448,35.2 C154.669939,35.2 152.569325,35.2 150.409816,35.2 C150.409816,35.0213139 150.390184,34.8624818 150.390184,34.7036496 C150.390184,28.9658394 150.390184,23.2280292 150.390184,17.490219 C150.390184,16.9740146 150.390184,16.9740146 149.860123,16.9740146 C148.603681,16.9740146 147.347239,16.9740146 146.071166,16.9740146 C145.91411,16.9740146 145.776687,16.9740146 145.6,16.9740146 Z" id="Shape" fill="#474747"></path>
                <path d="M173.175309,8 C175.446914,8 177.679012,8 179.950617,8 C179.950617,8.17573582 179.950617,8.33194544 179.950617,8.48815506 C179.950617,14.267911 179.950617,20.0671931 179.950617,25.846949 C179.950617,26.4717875 179.911111,26.3741565 180.503704,26.3936827 C181.135802,26.3936827 181.748148,26.3936827 182.4,26.3936827 C182.4,27.5262024 182.4,28.6001436 182.4,29.7326633 C181.609877,29.7326633 180.8,29.7326633 179.97037,29.7326633 C179.97037,31.5681263 179.97037,33.364537 179.97037,35.2 C177.698765,35.2 175.48642,35.2 173.214815,35.2 C173.214815,35.0828428 173.195062,34.9461594 173.195062,34.809476 C173.195062,33.2473798 173.195062,31.6852836 173.195062,30.1427136 C173.195062,29.8302943 173.096296,29.7521895 172.8,29.7521895 C169.758025,29.7717157 166.716049,29.7521895 163.654321,29.7521895 C163.516049,29.7521895 163.377778,29.7521895 163.2,29.7521895 C163.2,28.639196 163.2,27.5457286 163.2,26.3936827 C163.338272,26.3936827 163.476543,26.3936827 163.634568,26.3936827 C166.617284,26.3936827 169.580247,26.3936827 172.562963,26.3936827 C173.274074,26.3936827 173.195062,26.4913137 173.195062,25.749318 C173.195062,20.0086145 173.195062,14.267911 173.195062,8.52720747 C173.175309,8.37099785 173.175309,8.21478823 173.175309,8 Z" id="Shape" fill="#474747"></path>
                <path d="M27.2,0 C27.10078,0.254830236 27.0214041,0.450853494 26.9420281,0.646876752 C26.2078003,2.54830236 25.4735726,4.46933029 24.7195008,6.37075589 C24.0249611,8.11536289 23.3304213,9.85996989 22.6358816,11.5849746 C22.3977536,12.1926467 22.1993137,12.8199211 22.1993137,13.5060025 C22.2191577,21.0528979 22.2191577,28.5801911 22.2191577,36.1270865 C22.2191577,36.4211214 22.1397817,36.5975423 21.8818098,36.7935656 C20.1156944,38.1069214 18.389267,39.4398796 16.6231516,40.7532354 C15.353136,41.7137494 14.0831205,42.654661 12.8131049,43.615175 C11.3446494,44.7129052 9.8960379,45.8302378 8.4275824,46.9475704 C7.99101455,47.2808099 7.97117056,47.3004122 7.59413469,46.9083657 C6.56224704,45.8106355 5.60973536,44.6344959 4.81597563,43.3799471 C4.77628765,43.3015378 4.81597563,43.1055145 4.87550761,43.0467075 C6.44318308,41.8313633 8.01085854,40.6552238 9.57853401,39.4398796 C11.2652734,38.1265237 12.9520129,36.8131679 14.6387523,35.4998121 C15.6904839,34.6765144 16.7620596,33.8532167 17.8336352,33.0495213 C18.0122311,32.9123051 18.0122311,32.7750888 18.0122311,32.5986679 C18.0122311,29.2270678 18.0122311,25.8750701 18.0122311,22.50347 C18.0122311,19.9551677 18.0122311,17.4068653 18.0122311,14.8389607 C18.0122311,14.6429374 18.0717631,14.4273118 18.1511391,14.2508909 C19.2227147,12.153442 20.2942904,10.0755955 21.38571,7.99774894 C22.2390017,6.35115357 23.0922934,4.72416052 23.9455851,3.07756515 C24.4416849,2.13665352 24.9377848,1.2153442 25.4338846,0.274432562 C25.4735726,0.196023258 25.5727926,0.117613955 25.6521685,0.117613955 C26.1681124,0.0392046517 26.6443682,0.0196023258 27.2,0 Z" id="Shape" fill="#474747"></path>
                <path d="M48.8052692,47.2 C48.2888917,46.8084612 47.7923749,46.4560763 47.3157188,46.1036914 C46.0247752,45.1248445 44.7139709,44.1655745 43.4230272,43.1867275 C41.7348702,41.9142265 40.0467131,40.6221485 38.358556,39.3300705 C37.2264978,38.4686852 36.0745788,37.6268768 34.9425206,36.7850684 C34.7240532,36.6284529 34.6048892,36.4326835 34.6048892,36.1390294 C34.6247498,28.7193696 34.6048892,21.2997097 34.6247498,13.8800498 C34.6247498,13.0382414 34.4261431,12.2943177 34.1282331,11.5308171 C33.3536669,9.59270012 32.5989614,7.63500622 31.8243952,5.67731232 C31.1888537,4.05242638 30.5334516,2.42754044 29.8979101,0.783077561 C29.7986067,0.548154293 29.719164,0.293654085 29.6,0 C30.1163775,0.0587308171 30.6128942,0.0783077561 31.0895503,0.156615512 C31.1888537,0.176192451 31.3278784,0.274077146 31.3675997,0.391538781 C32.380494,2.32965574 33.3735275,4.24819577 34.3864218,6.18631273 C35.2404307,7.85035255 36.1143002,9.49481543 36.9881697,11.1392783 C37.5244079,12.1572791 38.060646,13.155703 38.5968841,14.1737039 C38.6961875,14.3498963 38.7359088,14.5652426 38.7359088,14.761012 C38.7359088,20.536209 38.7557695,26.2918291 38.7160481,32.0670261 C38.7160481,32.6739112 38.9146548,33.0262961 39.3714503,33.378681 C40.6425332,34.3183741 41.8937555,35.2972211 43.1648385,36.2564911 C44.6543889,37.3919535 46.1240785,38.527416 47.6136289,39.6628785 C49.0237365,40.7396101 50.4338442,41.8359187 51.8638125,42.9322273 C52.0226979,43.0496889 52.0425586,43.1671506 51.9233946,43.3237661 C51.0892464,44.3613438 50.2749588,45.4184985 49.4408106,46.4756533 C49.2620646,46.7105765 49.0435972,46.9259229 48.8052692,47.2 Z" id="Shape" fill="#AE0000"></path>
                <path d="M145.6,18.4 C146.615873,18.4 147.594805,18.4 148.592208,18.4 C148.666089,18.4 148.758442,18.5178947 148.776912,18.6161404 C148.813853,18.714386 148.795382,18.8322807 148.795382,18.9305263 C148.795382,24.1964912 148.795382,29.442807 148.795382,34.7087719 C148.795382,34.8659649 148.776912,35.0231579 148.776912,35.2 C147.705628,35.2 146.671284,35.2 145.61847,35.2 C145.6,29.6 145.6,24.0196491 145.6,18.4 Z" id="Shape" fill="#474747"></path>
                <path d="M158.4,18.4 C159.472941,18.4 160.527059,18.4 161.6,18.4 C161.6,24 161.6,29.5803509 161.6,35.2 C160.527059,35.2 159.472941,35.2 158.4,35.2 C158.4,29.6 158.4,24.0196491 158.4,18.4 Z" id="Shape" fill="#474747"></path>
                <path d="M122.4,25.6184211 C122.536585,25.6184211 122.653659,25.6 122.770732,25.6 C124.839024,25.6 126.907317,25.6 128.995122,25.6 C129.268293,25.6 129.404878,25.6736842 129.482927,25.9315789 C129.834146,26.9815789 130.22439,27.9947368 130.57561,29.0447368 C130.653659,29.2657895 130.75122,29.3763158 131.02439,29.3578947 C131.317073,29.3394737 131.629268,29.3578947 132,29.3578947 C131.746341,29.9657895 131.531707,30.5368421 131.278049,31.1078947 C131.258537,31.1631579 131.102439,31.2 131.004878,31.2 C128.858537,31.2 126.712195,31.2 124.585366,31.2 C124.409756,31.2 124.312195,31.1447368 124.253659,30.9789474 C123.64878,29.2473684 123.043902,27.4973684 122.439024,25.7657895 C122.4,25.7289474 122.419512,25.6921053 122.4,25.6184211 Z" id="Shape" fill="#474747"></path>
                <path d="M162.4,8.82445953 C163.971598,8.82445953 165.543195,8.88509791 167.076923,8.80424674 C167.891124,8.76382116 168.364497,9.00637465 168.76213,9.77446067 C169.368047,10.9468025 170.087574,12.0382932 170.750296,13.1702094 C170.901775,13.4127629 171.053254,13.5340396 171.318343,13.493614 C171.526627,13.4734012 171.753846,13.493614 172,13.493614 C171.981065,13.6148908 171.96213,13.6957419 171.92426,13.7765931 C171.697041,14.4234024 171.450888,15.0904244 171.223669,15.7372337 C171.166864,15.9191488 171.091124,16 170.88284,16 C169.462722,15.9797872 168.042604,16 166.622485,15.9797872 C166.527811,15.9797872 166.376331,15.898936 166.319527,15.8180849 C165.013018,13.5340396 163.706509,11.2297815 162.4,8.92552349 C162.418935,8.92552349 162.418935,8.9053107 162.4,8.82445953 Z" id="Shape" fill="#474747"></path>
                <path d="M172.8,22.2921348 C172.497041,23.141573 172.213018,23.8898876 171.928994,24.658427 C171.910059,24.7191011 171.777515,24.8 171.68284,24.8 C170.243787,24.8 168.804734,24.8 167.36568,24.8 C167.271006,24.8 167.138462,24.7191011 167.100592,24.6382022 C165.794083,22.3325843 164.487574,20.0067416 163.2,17.7011236 C163.2,17.7011236 163.2,17.6808989 163.2,17.6202247 C163.294675,17.6202247 163.408284,17.6 163.502959,17.6 C165.207101,17.6 166.911243,17.6 168.615385,17.6 C168.861538,17.6 168.994083,17.6808989 169.126627,17.9033708 C169.902959,19.2382022 170.698225,20.5730337 171.474556,21.9078652 C171.64497,22.211236 171.83432,22.352809 172.156213,22.2921348 C172.345562,22.2719101 172.534911,22.2921348 172.8,22.2921348 Z" id="Shape" fill="#474747"></path>
                <path d="M136.790225,40.9448468 C136.411636,41.0050139 136.052972,41.0852368 135.654457,41.1654596 C135.654457,40.8245125 135.654457,40.5236769 135.654457,40.2027855 C133.741586,40.2027855 131.868565,40.2027855 129.975619,40.2027855 C129.975619,41.9275766 129.975619,43.632312 129.975619,45.3771588 C131.868565,45.3771588 133.741586,45.3771588 135.634532,45.3771588 C135.634532,44.6952646 135.634532,44.0133705 135.634532,43.3114206 C134.678096,43.3114206 133.72166,43.3114206 132.765224,43.3114206 C132.765224,42.9905292 132.765224,42.7097493 132.765224,42.3888579 C134.100249,42.3888579 135.4552,42.3888579 136.770299,42.3888579 C136.770299,43.4116992 136.790225,44.4345404 136.750373,45.4373259 C136.730448,45.9387187 136.371784,46.2194986 135.893566,46.3197772 C135.654457,46.3598886 135.395423,46.4 135.136388,46.4 C133.602105,46.4 132.047897,46.4 130.513614,46.4 C129.158663,46.4 128.8,46.0189415 128.8,44.6551532 C128.8,43.4116992 128.8,42.1682451 128.8,40.9448468 C128.8,40.8245125 128.8,40.7041783 128.8,40.583844 C128.839851,39.681337 129.138738,39.3604457 130.015471,39.2401114 C130.194802,39.2200557 130.39406,39.2 130.593317,39.2 C132.067823,39.2 133.562254,39.2 135.036759,39.2 C135.116462,39.2 135.176239,39.2 135.255942,39.2 C136.471413,39.2 136.869928,39.6612813 136.790225,40.9448468 Z" id="Shape" fill="#B50101"></path>
                <path d="M159.171917,46.34 C158.216263,46.34 157.241495,46.38 156.285841,46.32 C155.559544,46.28 155.253734,46 155.234621,45.26 C155.177282,43.58 155.196395,41.9 155.253734,40.24 C155.272847,39.6 155.59777,39.34 156.209389,39.26 C156.610763,39.22 157.012138,39.2 157.413513,39.2 C158.789655,39.2 160.165798,39.2 161.54194,39.2 C162.84163,39.2 163.185665,39.54 163.185665,40.9 C163.204778,42.18 163.204778,43.44 163.185665,44.72 C163.166552,46.06 162.84163,46.4 161.561053,46.4 C160.777416,46.4 159.974667,46.4 159.19103,46.4 C159.171917,46.36 159.171917,46.34 159.171917,46.34 Z M162.03888,45.36 C162.03888,43.62 162.03888,41.9 162.03888,40.2 C160.127571,40.2 158.235376,40.2 156.324067,40.2 C156.324067,41.94 156.324067,43.64 156.324067,45.36 C158.235376,45.36 160.127571,45.36 162.03888,45.36 Z" id="Shape" fill="#B50101"></path>
                <path d="M166.4,46.3398329 C166.4,43.9532033 166.4,41.5866295 166.4,39.2401114 C166.438821,39.2200557 166.458231,39.2 166.477642,39.2 C168.224578,39.2401114 169.990926,39.2 171.737862,39.34039 C173.54303,39.4807799 174.358268,41.1052925 174.397088,42.4891365 C174.416499,43.0707521 174.338857,43.6724234 174.164164,44.2139276 C173.737135,45.5175487 172.786025,46.2395543 171.485527,46.3197772 C169.835642,46.4 168.166347,46.3799443 166.497052,46.4 C166.458231,46.3598886 166.438821,46.3598886 166.4,46.3398329 Z M167.564625,45.3771588 C168.554555,45.3771588 169.525076,45.3771588 170.495596,45.3771588 C170.747932,45.3771588 171.000267,45.3370474 171.252602,45.2969359 C172.436637,45.1164345 173.05777,44.5147632 173.193643,43.2913649 C173.368337,41.5064067 172.844256,40.3832869 171.019677,40.2228412 C170.029746,40.1426184 169.039816,40.1827298 168.049885,40.1626741 C167.894601,40.1626741 167.739318,40.1626741 167.564625,40.1626741 C167.564625,41.9275766 167.564625,43.632312 167.564625,45.3771588 Z" id="Shape" fill="#B50101"></path>
                <path d="M115.2,39.2 C115.2,41.62 115.2,43.98 115.2,46.36 C114.862302,46.36 114.524605,46.36 114.147178,46.36 C114.147178,44.46 114.147178,42.56 114.147178,40.54 C113.988262,40.82 113.888939,41 113.769752,41.18 C112.875847,42.48 112.001806,43.76 111.107901,45.06 C110.92912,45.32 110.730474,45.34 110.551693,45.08 C109.598194,43.8 108.66456,42.52 107.730926,41.24 C107.611738,41.08 107.512415,40.9 107.373363,40.66 C107.373363,42.62 107.373363,44.5 107.373363,46.4 C107.035666,46.4 106.717833,46.4 106.4,46.4 C106.4,44.02 106.4,41.66 106.4,39.24 C106.678104,39.24 106.976072,39.22 107.274041,39.26 C107.373363,39.26 107.452822,39.4 107.53228,39.48 C108.525508,40.8 109.518736,42.14 110.531828,43.48 C110.631151,43.62 110.750339,43.76 110.869526,43.94 C110.968849,43.82 111.048307,43.7 111.107901,43.6 C112.041535,42.28 112.955305,40.96 113.869074,39.62 C114.047856,39.34 114.246501,39.18 114.584199,39.24 C114.76298,39.24 114.98149,39.2 115.2,39.2 Z" id="Shape" fill="#B50101"></path>
                <path d="M182.427507,42.2252101 C182.427507,42.5680672 182.427507,42.8504202 182.427507,43.1529412 C181.230946,43.1529412 180.055014,43.1529412 178.837822,43.1529412 C178.837822,43.9193277 178.837822,44.6453782 178.837822,45.4117647 C180.797708,45.4117647 182.798854,45.4117647 184.8,45.4117647 C184.8,45.7546218 184.8,46.0773109 184.8,46.4 C182.406877,46.4 180.013754,46.4 177.6,46.4 C177.6,44.0201681 177.6,41.6201681 177.6,39.2 C179.972493,39.2 182.324355,39.2 184.738109,39.2 C184.738109,39.4823529 184.738109,39.7647059 184.738109,40.087395 C182.778223,40.087395 180.838968,40.087395 178.858453,40.087395 C178.858453,40.7932773 178.858453,41.4789916 178.858453,42.205042 C180.013754,42.2252101 181.210315,42.2252101 182.427507,42.2252101 Z" id="Shape" fill="#B50101"></path>
                <path d="M151.996905,41.5621502 C151.629321,41.6221235 151.281083,41.6820968 150.874807,41.7620613 C150.874807,41.2223012 150.874807,40.7225233 150.874807,40.2227454 C149.230353,40.2227454 147.624592,40.2227454 145.999484,40.2227454 C145.999484,41.9419813 145.999484,43.6412261 145.999484,45.3804531 C147.605245,45.3804531 149.211006,45.3804531 150.85546,45.3804531 C150.85546,44.8207019 150.85546,44.2609507 150.85546,43.621235 C151.223044,43.7011995 151.571281,43.7611728 151.900172,43.8411373 C151.938865,43.8611284 151.996905,43.961084 151.996905,44.0410484 C151.977558,44.5208352 151.996905,45.0006219 151.919518,45.4804087 C151.842132,46.0201688 151.571281,46.2600622 151.029579,46.3400267 C150.700688,46.3800089 150.352451,46.4 150.02356,46.4 C148.843422,46.4 147.682631,46.4 146.502494,46.4 C145.167584,46.4 144.8,46.0201688 144.8,44.6407819 C144.8,43.4213239 144.8,42.2018658 144.8,40.9624167 C144.8,40.84247 144.8,40.7225233 144.8,40.6025766 C144.838693,39.7029765 145.128891,39.3231453 145.999484,39.2431808 C146.676612,39.1832075 147.373087,39.2031986 148.050215,39.2031986 C148.998194,39.2031986 149.926827,39.1832075 150.874807,39.2631719 C151.629321,39.3231453 151.880825,39.623012 151.958212,40.4026655 C152.016251,40.7824967 151.996905,41.1623279 151.996905,41.5621502 Z" id="Shape" fill="#B50101"></path>
                <path d="M117.6,46.3602533 C118.019048,45.5653202 118.4,44.8300069 118.8,44.0946937 C119.6,42.5644474 120.419048,41.034201 121.219048,39.5039546 C121.333333,39.3052213 121.447619,39.2456013 121.657143,39.225728 C122.361905,39.106488 122.72381,39.4045879 123.047619,40.0604078 C124.07619,42.0874874 125.180952,44.0748204 126.247619,46.0820267 C126.285714,46.16152 126.32381,46.2410134 126.4,46.3801267 C126.019048,46.3801267 125.657143,46.4 125.314286,46.3801267 C125.238095,46.3801267 125.12381,46.28076 125.085714,46.1813934 C124.857143,45.7441801 124.628571,45.3069669 124.419048,44.8498803 C124.342857,44.6710203 124.228571,44.591527 124.038095,44.591527 C122.647619,44.591527 121.257143,44.6114003 119.866667,44.591527 C119.657143,44.591527 119.561905,44.6710203 119.485714,44.8498803 C119.27619,45.2870935 119.047619,45.7243068 118.857143,46.16152 C118.780952,46.34038 118.666667,46.4 118.495238,46.4 C118.190476,46.34038 117.92381,46.3602533 117.6,46.3602533 Z M123.809524,43.6376072 C123.180952,42.4054607 122.571429,41.2329343 121.942857,40.0007878 C121.295238,41.2528076 120.704762,42.425334 120.07619,43.6376072 C121.352381,43.6376072 122.552381,43.6376072 123.809524,43.6376072 Z" id="Shape" fill="#B50101"></path>
                <path d="M72,42.8 C72,42.65 72,42.55 72,42.4 C81.8468938,42.4 91.6937876,42.4 101.560454,42.4 C101.580227,42.525 101.580227,42.65 101.6,42.8 C91.7333333,42.8 81.8666667,42.8 72,42.8 Z" id="Shape" fill="#000000"></path>
                <path d="M219.2,42.4 C219.2,42.55 219.2,42.65 219.2,42.8 C209.353106,42.8 199.506212,42.8 189.639546,42.8 C189.619773,42.675 189.619773,42.55 189.6,42.4 C199.466667,42.4 209.31356,42.4 219.2,42.4 Z" id="Shape" fill="#000000"></path>
                <path d="M140,39.2 C140.280702,39.2 140.533333,39.2 140.8,39.2 C140.8,41.6 140.8,43.9798319 140.8,46.4 C140.547368,46.4 140.280702,46.4 140,46.4 C140,44.0201681 140,41.6403361 140,39.2 Z" id="Shape" fill="#B50101"></path>
                <path d="M122.420042,14.4 C122.540292,14.4 122.640501,14.4 122.74071,14.4 C124.885177,14.4 127.049687,14.4 129.194154,14.4 C129.474739,14.4 129.59499,14.4823529 129.675157,14.75 C129.955741,15.6764706 130.276409,16.5617647 130.536952,17.4882353 C130.637161,17.8176471 130.777453,17.9205882 131.098121,17.8794118 C131.378706,17.8588235 131.679332,17.8794118 132,17.8794118 C131.739457,18.5794118 131.518998,19.2382353 131.258455,19.8764706 C131.238413,19.9382353 131.098121,20 130.997912,20 C128.793319,20 126.568685,20 124.364092,20 C124.263883,20 124.123591,19.8970588 124.083507,19.8147059 C123.522338,18.0852941 122.961169,16.3352941 122.4,14.5852941 C122.420042,14.5441176 122.420042,14.4823529 122.420042,14.4 Z" id="Shape" fill="#474747"></path>
            </g>
        </g>
    </g>
</svg>