<?xml version="1.0" encoding="UTF-8"?>
<svg width="20px" height="16px" viewBox="0 0 20 16" version="1.1" xmlns="http://www.w3.org/2000/svg" xmlns:xlink="http://www.w3.org/1999/xlink">
    <!-- Generator: Sketch 50 (54983) - http://www.bohemiancoding.com/sketch -->
    <title>mail</title>
    <desc>Created with Sketch.</desc>
    <defs></defs>
    <g id="Page-1" stroke="none" stroke-width="1" fill="none" fill-rule="evenodd">
        <g id="首页-copy" transform="translate(-137.000000, -4708.000000)" fill-rule="nonzero">
            <g id="Group-27" transform="translate(0.000000, 4425.000000)">
                <g id="Group-2" transform="translate(136.000000, 204.653515)">
                    <g id="mail" transform="translate(0.000000, 75.000000)">
                        <rect id="Rectangle-path" fill="#000000" opacity="0" x="0" y="0" width="22" height="22"></rect>
                        <path d="M18.0726875,4 L3.1773125,4 C1.9769375,4 1,4.97625 1,6.176625 L1,16.260875 C1,17.46125 1.9769375,18.4375 3.1773125,18.4375 L18.0726875,18.4375 C19.2730625,18.4375 20.25,17.46125 20.25,16.260875 L20.25,6.176625 C20.25,4.97625 19.2730625,4 18.0726875,4 Z M18.0726875,17.0625 L3.1773125,17.0625 C2.7345625,17.0625 2.375,16.7029375 2.375,16.260875 L2.375,6.176625 C2.375,5.7345625 2.7345625,5.375 3.1773125,5.375 L17.8843125,5.375 L11.278125,11.3865 C10.964625,11.6993125 10.455875,11.698625 10.1018125,11.348 L4.854125,6.9060625 C4.5633125,6.660625 4.1295,6.696375 3.88475,6.9865 C3.6393125,7.2759375 3.6750625,7.70975 3.9651875,7.9551875 L9.1709375,12.358625 C9.5985625,12.78625 10.16025,12.9986875 10.7185,12.9986875 C11.2691875,12.9986875 11.817125,12.79175 12.2261875,12.3813125 L18.875,6.332 L18.875,16.260875 C18.875,16.7029375 18.5154375,17.0625 18.0726875,17.0625 Z" id="Shape" fill="#ADBAC9"></path>
                    </g>
                </g>
            </g>
        </g>
    </g>
</svg>