<?xml version="1.0" encoding="UTF-8"?>
<svg width="22px" height="23px" viewBox="0 0 22 23" version="1.1" xmlns="http://www.w3.org/2000/svg" xmlns:xlink="http://www.w3.org/1999/xlink">
    <!-- Generator: Sketch 50 (54983) - http://www.bohemiancoding.com/sketch -->
    <title>电话</title>
    <desc>Created with Sketch.</desc>
    <defs></defs>
    <g id="Page-1" stroke="none" stroke-width="1" fill="none" fill-rule="evenodd">
        <g id="首页-copy" transform="translate(-136.000000, -4631.000000)" fill-rule="nonzero">
            <g id="Group-27" transform="translate(0.000000, 4425.000000)">
                <g id="Group-2" transform="translate(136.000000, 204.653515)">
                    <g id="电话" transform="translate(0.000000, 2.000000)">
                        <rect id="Rectangle-path" fill="#000000" opacity="0" x="0" y="0" width="21.9785366" height="22"></rect>
                        <path d="M17.0961588,10.2836014 C17.1501343,10.6383707 17.4558362,10.8917773 17.8030945,10.8917773 C17.8398743,10.8917773 17.8761764,10.8893867 17.9129562,10.8836492 C18.3041591,10.8234054 18.5726036,10.457161 18.5124186,10.0660542 C17.5618766,3.86906635 12.0114757,3.57788778 11.9555896,3.57549715 C11.5710739,3.55493774 11.2271592,3.86763199 11.2113964,4.2635201 C11.1956337,4.65940821 11.5037239,4.99314 11.8987481,5.00891815 C11.9431705,5.01083064 16.3223508,5.24224351 17.0961588,10.2836014 Z M18.6961263,3.44324756 C13.8182697,-1.43602568 9.36696288,0.276142624 9.17972045,0.351686499 C8.81287811,0.499427349 8.63471119,0.917309249 8.78230792,1.28450981 C8.9303823,1.65218853 9.3469012,1.83052942 9.71422118,1.68231044 C9.7514786,1.66748854 13.4681455,0.240761318 17.683011,4.45735228 C21.5654257,8.34164585 20.4257306,12.2857051 20.3765317,12.448746 C20.2585498,12.8269435 20.4682423,13.2295254 20.8455931,13.3481005 C20.9167643,13.3705725 20.9893686,13.3806131 21.0600621,13.3806131 C21.3652864,13.3806131 21.6480607,13.1845815 21.7440702,12.8781029 C21.8061659,12.6792026 23.2152608,7.9639265 18.6961263,3.44324756 Z M17.0182526,20.3363865 C16.9494696,20.4052366 16.7249698,20.5654087 16.1173872,20.5654087 C14.1479979,20.5654087 10.3740119,18.9091811 6.74093543,15.2735129 C1.97102986,10.497993 0.886265621,5.78367311 1.68300131,4.98663748 C2.19791801,4.4707398 3.26883012,3.39782562 4.2814678,3.39782562 C4.84176212,3.39782562 5.37291924,3.72056051 5.90455403,4.38419904 C7.43688502,6.29526764 6.77341628,6.95077805 5.6738446,8.03660163 L5.46940644,8.23932695 C5.19379702,8.51472737 5.04811094,8.87810294 5.04811094,9.29072547 C5.04763327,9.94958274 5.36575437,11.1434627 8.11707184,13.8950764 C10.868867,16.6481245 12.0611045,16.9665562 12.7188414,16.9665562 L12.719319,16.9665562 C13.130106,16.9665562 13.4926494,16.8216841 13.7682588,16.5467618 L13.9703087,16.3426021 C14.5683381,15.7358605 15.0851654,15.2113566 15.7386034,15.2113566 C16.2449222,15.2113566 16.8782984,15.5140102 17.6205809,16.1107111 C18.2530018,16.619915 18.5744665,17.1248158 18.6026484,17.6564917 C18.6594899,18.6954589 17.5513203,19.8037544 17.0182526,20.3363865 Z M18.5181027,14.9928531 C17.5006884,14.1743018 16.5912252,13.7769793 15.7386034,13.7769793 C14.4857031,13.7769793 13.669861,14.6050931 12.9500285,15.3356693 L12.7188414,15.532179 C12.4986404,15.532179 11.5896548,15.3414068 9.13018718,12.8804936 C6.25993254,10.0093485 6.48252176,9.25486603 6.48252176,9.25343164 L6.68027272,9.05740009 C7.81280286,7.93906397 9.36424022,6.40714907 7.02227676,3.48675701 C6.21216661,2.47647731 5.28980655,1.96344837 4.2814678,1.96344837 C2.67557731,1.96344837 1.37013448,3.27064418 0.669408316,3.97205465 C-1.40267765,6.04759852 1.63045878,12.1857769 5.72782011,16.2876176 C9.67041983,20.2331113 13.7864099,21.999786 16.1173872,21.999786 C16.9580675,21.999786 17.6024299,21.7808044 18.0318456,21.3509693 C18.7110771,20.6710745 20.1249485,19.2572566 20.0337156,17.5785572 C19.9826061,16.6304338 19.472466,15.760245 18.5181027,14.9928531 Z" id="Shape" fill="#ADBAC9"></path>
                    </g>
                </g>
            </g>
        </g>
    </g>
</svg>