<?xml version="1.0" encoding="UTF-8"?>
<svg width="100px" height="100px" viewBox="0 0 100 100" version="1.1" xmlns="http://www.w3.org/2000/svg" xmlns:xlink="http://www.w3.org/1999/xlink">
    <!-- Generator: Sketch 50 (54983) - http://www.bohemiancoding.com/sketch -->
    <title>Group 11</title>
    <desc>Created with Sketch.</desc>
    <defs></defs>
    <g id="Page-1" stroke="none" stroke-width="1" fill="none" fill-rule="evenodd">
        <g id="联系我们1" transform="translate(-828.000000, -619.000000)">
            <g id="Group-11" transform="translate(829.000000, 620.000000)">
                <rect id="Rectangle-path" stroke="#AE0000" stroke-width="2" stroke-linejoin="round" x="0" y="0" width="98" height="98" rx="9"></rect>
                <path d="M58.1070691,73.263989 C51.4433364,70.7502241 44.2013665,65.7876366 37.6986998,59.2874163 C31.1960331,52.787196 26.2339982,45.5416384 23.7209676,38.8755656 C21.4320289,32.81995 21.4270269,27.8483705 23.7019598,25.5733933 C24.0310948,25.2446856 24.3662322,24.8929983 24.7103733,24.532319 C26.787225,22.3502592 29.1892101,19.869465 32.2434626,20.0053441 C34.3893426,20.0942651 36.4661943,21.4250818 38.5970682,24.0707294 C44.8776438,31.8837824 42.0464828,34.6693056 38.7691388,37.8974353 L38.1879004,38.4709254 C37.6516805,39.0074483 36.6362641,41.4892416 46.068132,50.9178582 C48.4434885,53.3989594 51.0571005,55.6410708 53.8713321,57.6119061 C55.1938744,58.470143 57.5538422,59.7649917 58.521239,58.7968525 L59.1034777,58.2083758 C62.3288004,54.935286 65.1139426,52.1137948 72.9281472,58.3922123 C75.5742323,60.519321 76.9037775,62.5964741 76.992814,64.743565 C77.1208666,67.8537995 74.6418499,70.2067074 72.4559535,72.2818623 C72.0968062,72.6235584 71.7456622,72.9542644 71.4195285,73.2809739 C69.9721116,74.5122614 68.0962924,75.1227182 66.2003881,74.9794637 C63.4225627,74.8876683 60.6827624,74.3069352 58.1070691,73.263989 Z M26.0499227,25.8061863 C25.6937766,26.1798541 25.3496355,26.5445298 25.0084956,26.8822295 C23.314801,28.5747246 23.4888724,33.0277652 25.4486761,38.2251439 C27.8726702,44.6484326 32.6866444,51.6651937 39.0042352,57.9825765 C45.321826,64.2999594 52.3387035,69.111681 58.760337,71.5355259 C63.9624704,73.4977811 68.4142961,73.6676301 70.108991,71.9721377 C70.4471297,71.635437 70.8092782,71.2917426 71.1774292,70.9400553 C73.0782087,69.1336615 75.2340928,67.0874809 75.1420551,64.8174992 C75.0770284,63.257886 73.9415627,61.5803775 71.76467,59.8329313 C65.2529996,54.603581 63.4352542,56.4519375 60.416016,59.5072209 L59.8247735,60.1066879 C58.3881844,61.5504042 56.0442232,61.235684 52.8589169,59.1635265 C49.9363621,57.1224986 47.2221578,54.79901 44.7555938,52.2266944 C36.9303847,44.4016521 34.4253574,39.6159073 36.8763625,37.1630883 L37.4656042,36.578608 C40.5318616,33.5602917 42.3826206,31.7389112 37.1494745,25.2286998 C35.399757,23.0566311 33.7230694,21.9206411 32.1634298,21.8537007 C32.1144097,21.8537007 32.0633888,21.8537007 32.0183703,21.8537007 C29.8174677,21.8527016 27.8196484,23.9528342 26.0529239,25.8061863 L26.0499227,25.8061863 Z M74.429763,46.0072245 C74.2029245,45.9158494 74.0218348,45.7380565 73.9264818,45.5131055 C73.8311287,45.2881544 73.8293558,45.0345493 73.9215545,44.8082905 C76.4918135,38.491257 74.9518487,31.2478266 70.0331839,26.5188193 C65.114519,21.789812 57.8083878,20.5282407 51.5853946,23.333385 C51.1215515,23.5283723 50.5866427,23.3183113 50.3800102,22.8600253 C50.1733777,22.4017393 50.3704419,21.8625018 50.8240824,21.6448863 C57.7372282,18.5292568 65.853266,19.9313588 71.3167766,25.1851416 C76.7802871,30.4389245 78.4902055,38.48559 75.6342569,45.5026731 C75.4933725,45.8513768 75.1544145,46.0795601 74.7779057,46.0791605 C74.6594661,46.0787971 74.542233,46.0553809 74.4327642,46.0102218 L74.429763,46.0072245 Z M66.1723767,42.656204 C65.7007712,42.4650407 65.4733402,41.9284996 65.6641682,41.4572701 C66.8595419,38.514837 66.1416283,35.1420558 63.8511556,32.9396777 C61.5606829,30.7372996 58.1587332,30.148673 55.2599015,31.4531653 C54.7977874,31.646646 54.2654236,31.4376357 54.0589532,30.9816633 C53.8524828,30.5256909 54.046924,29.9884276 54.4975889,29.7696622 C58.0863999,28.1524878 62.2994774,28.880031 65.1361935,31.6068095 C67.9729096,34.333588 68.8618425,38.5103256 67.3808722,42.1536509 C67.2381237,42.5007046 66.9002003,42.7277971 66.5245211,42.7291392 C66.4046883,42.7287738 66.2860829,42.7050156 66.1753779,42.6592014 L66.1723767,42.656204 Z" id="phone_icon" fill="#AE0000" fill-rule="nonzero"></path>
            </g>
        </g>
    </g>
</svg>