<?xml version="1.0" encoding="UTF-8"?>
<svg width="67px" height="72px" viewBox="0 0 67 72" version="1.1" xmlns="http://www.w3.org/2000/svg" xmlns:xlink="http://www.w3.org/1999/xlink">
    <!-- Generator: Sketch 50 (54983) - http://www.bohemiancoding.com/sketch -->
    <title>Group 23</title>
    <desc>Created with Sketch.</desc>
    <defs></defs>
    <g id="Page-1" stroke="none" stroke-width="1" fill="none" fill-rule="evenodd">
        <g id="首页-copy" transform="translate(-807.000000, -3054.000000)" stroke="#FFFFFF">
            <g id="Group-26" transform="translate(0.000000, 3009.000000)">
                <g id="Group-25">
                    <g id="Group-23" transform="translate(799.500000, 40.000000)">
                        <g id="Group-16-Copy" transform="translate(7.500000, 5.855339)">
                            <path d="M33,10 C30.2385763,10 28,7.76142375 28,5 C28,2.23857625 30.2385763,0 33,0 C35.7614237,0 38,2.23857625 38,5 C38,7.76142375 35.7614237,10 33,10 Z M5.5,54.6980788 C2.73857625,54.6980788 0.5,52.4595025 0.5,49.6980788 C0.5,46.936655 2.73857625,44.6980788 5.5,44.6980788 C8.26142375,44.6980788 10.5,46.936655 10.5,49.6980788 C10.5,52.4595025 8.26142375,54.6980788 5.5,54.6980788 Z M61,54.6980788 C58.2385763,54.6980788 56,52.4595025 56,49.6980788 C56,46.936655 58.2385763,44.6980788 61,44.6980788 C63.7614237,44.6980788 66,46.936655 66,49.6980788 C66,52.4595025 63.7614237,54.6980788 61,54.6980788 Z M8.48658469,45.7870522 L29.7414185,8.68770596 M36.3498465,8.84700471 L57.6664814,46.0542221 M56.0831685,51 L10.4166098,51" id="Oval-4-Copy-3"></path>
                            <path d="M33,25.2294542 C30.2385763,25.2294542 28,22.990878 28,20.2294542 C28,17.4680305 30.2385763,15.2294542 33,15.2294542 C35.7614237,15.2294542 38,17.4680305 38,20.2294542 C38,22.990878 35.7614237,25.2294542 33,25.2294542 Z M5.5,69.927533 C2.73857625,69.927533 0.5,67.6889568 0.5,64.927533 C0.5,62.1661093 2.73857625,59.927533 5.5,59.927533 C8.26142375,59.927533 10.5,62.1661093 10.5,64.927533 C10.5,67.6889568 8.26142375,69.927533 5.5,69.927533 Z M61,69.927533 C58.2385763,69.927533 56,67.6889568 56,64.927533 C56,62.1661093 58.2385763,59.927533 61,59.927533 C63.7614237,59.927533 66,62.1661093 66,64.927533 C66,67.6889568 63.7614237,69.927533 61,69.927533 Z M8.48658469,61.0165064 L29.7414185,23.9171602 M36.3498465,24.076459 L57.6664814,61.2836764 M56.0831685,66.2294542 L10.4166098,66.2294542" id="Oval-4-Copy-3" transform="translate(33.250000, 42.578494) scale(1, -1) translate(-33.250000, -42.578494) "></path>
                        </g>
                    </g>
                </g>
            </g>
        </g>
    </g>
</svg>