<?xml version="1.0" encoding="UTF-8"?>
<svg width="66px" height="61px" viewBox="0 0 66 61" version="1.1" xmlns="http://www.w3.org/2000/svg" xmlns:xlink="http://www.w3.org/1999/xlink">
    <!-- Generator: Sketch 50 (54983) - http://www.bohemiancoding.com/sketch -->
    <title>Group 22</title>
    <desc>Created with Sketch.</desc>
    <defs></defs>
    <g id="Page-1" stroke="none" stroke-width="1" fill="none" fill-rule="evenodd">
        <g id="首页-copy" transform="translate(-1047.000000, -3092.000000)" stroke="#FFFFFF">
            <g id="Group-26" transform="translate(0.000000, 3009.000000)">
                <g id="Group-25">
                    <g id="Group-22" transform="translate(1040.000000, 74.000000)">
                        <g id="Group-19" transform="translate(7.000000, 9.869565)">
                            <path d="M9.46723515,55.2150796 C12.4959137,57.867011 16.4624401,59.4742098 20.8043478,59.4742098 C30.3132505,59.4742098 38.0217391,51.7657212 38.0217391,42.2568185 C38.0217391,32.7479159 30.3132505,25.0394272 20.8043478,25.0394272 C11.2954452,25.0394272 3.58695652,32.7479159 3.58695652,42.2568185 C3.58695652,43.8099974 3.79261726,45.3151416 4.17819217,46.7465047" id="Oval-5-Copy"></path>
                            <path d="M28.6901451,5.76726099 C21.6337131,7.91817848 16.5,14.479133 16.5,22.2391304 C16.5,31.7480331 24.2084887,39.4565217 33.7173913,39.4565217 C43.226294,39.4565217 50.9347826,31.7480331 50.9347826,22.2391304 C50.9347826,14.5239795 45.8602356,7.99405262 38.8667857,5.80499397" id="Path"></path>
                            <path d="M63.2307548,46.841327 C63.6329716,45.3816676 63.8478261,43.844334 63.8478261,42.2568185 C63.8478261,32.7479159 56.1393374,25.0394272 46.6304348,25.0394272 C37.1215321,25.0394272 29.4130435,32.7479159 29.4130435,42.2568185 C29.4130435,51.7657212 37.1215321,59.4742098 46.6304348,59.4742098 C50.8479919,59.4742098 54.7113612,57.9577519 57.7050322,55.4403466" id="Path"></path>
                            <circle id="Path" cx="33.7173913" cy="5.02173913" r="5.02173913"></circle>
                            <circle id="Path" cx="6.39269699" cy="51.1061717" r="5.02173913"></circle>
                            <circle id="Path" cx="60.2608696" cy="51.1061717" r="5.02173913"></circle>
                        </g>
                    </g>
                </g>
            </g>
        </g>
    </g>
</svg>