<?xml version="1.0" encoding="UTF-8"?>
<svg width="62px" height="61px" viewBox="0 0 62 61" version="1.1" xmlns="http://www.w3.org/2000/svg" xmlns:xlink="http://www.w3.org/1999/xlink">
    <!-- Generator: Sketch 50 (54983) - http://www.bohemiancoding.com/sketch -->
    <title>Group 18</title>
    <desc>Created with Sketch.</desc>
    <defs></defs>
    <g id="Page-1" stroke="none" stroke-width="1" fill="none" fill-rule="evenodd">
        <g id="首页-copy" transform="translate(-89.000000, -3093.000000)" stroke="#FFFFFF">
            <g id="Group-26" transform="translate(0.000000, 3009.000000)">
                <g id="Group-25">
                    <g id="Group-18" transform="translate(80.000000, 74.000000)">
                        <g id="Group-17" transform="translate(10.000000, 10.000000)">
                            <path d="M12.2247397,10.7059162 L29.8111914,0.658803136 L47.5620808,10.9072839 M53.2894523,20.2215678 L53.2894523,41.3243438 L35.9564054,51.3315831 M23.5064076,51.2394554 L6.33293053,41.3243438 L6.33293053,20.4986294 M47.7261896,17.4268284 L40.5389087,21.5004575 L40.6039088,21.5379853 L40.6039088,34.0003419 L29.9514728,40.1505287 L29.9514728,46.6488419 C29.9048311,46.6478577 29.858069,46.6473631 29.8111914,46.6473631 C26.2093343,46.6473631 23.2894523,49.5672451 23.2894523,53.1691022 C23.2894523,56.7709593 26.2093343,59.6908413 29.8111914,59.6908413 C33.4130485,59.6908413 36.3329305,56.7709593 36.3329305,53.1691022 C36.3329305,49.6141228 33.4885575,46.7234822 29.9514728,46.6488419 L29.9514728,40.1505287 L29.8111914,40.2315202 L19.018474,34.0003419 L19.018474,21.5379853 L19.0221023,21.5358905 L11.952464,17.492654 C12.6417179,16.4585053 13.0434488,15.2163191 13.0434488,13.8803037 C13.0434488,10.2784466 10.1235668,7.35856453 6.5217097,7.35856453 C2.91985264,7.35856453 -2.94269897e-05,10.2784466 -2.94269897e-05,13.8803037 C-2.94269897e-05,17.4821607 2.91985264,20.4020428 6.5217097,20.4020428 C8.78755131,20.4020428 10.7835105,19.2465388 11.952464,17.492654 L19.0221023,21.5358905 L29.8111914,15.306807 L40.5389087,21.5004575 L47.7261896,17.4268284 C48.8887562,19.2175696 50.9061764,20.4020428 53.2002452,20.4020428 C56.8021023,20.4020428 59.7219844,17.4821607 59.7219844,13.8803037 C59.7219844,10.2784466 56.8021023,7.35856453 53.2002452,7.35856453 C49.5983882,7.35856453 46.6785061,10.2784466 46.6785061,13.8803037 C46.6785061,15.188092 47.063441,16.4059739 47.7261896,17.4268284 Z" id="Polygon"></path>
                        </g>
                    </g>
                </g>
            </g>
        </g>
    </g>
</svg>