<?xml version="1.0" encoding="UTF-8"?>
<svg width="71px" height="60px" viewBox="0 0 71 60" version="1.1" xmlns="http://www.w3.org/2000/svg" xmlns:xlink="http://www.w3.org/1999/xlink">
    <!-- Generator: Sketch 50 (54983) - http://www.bohemiancoding.com/sketch -->
    <title>Group 21</title>
    <desc>Created with Sketch.</desc>
    <defs></defs>
    <g id="Page-1" stroke="none" stroke-width="1" fill="none" fill-rule="evenodd">
        <g id="首页-copy" transform="translate(-452.000000, -3093.000000)" stroke="#FFFFFF">
            <g id="Group-21" transform="translate(447.000000, 3083.000000)">
                <g id="Group-16" transform="translate(5.000000, 10.833333)">
                    <path d="M34.469697,29.7505482 L34.469697,10.5798768 C34.6441169,10.5971942 34.821023,10.6060606 35,10.6060606 C37.9287828,10.6060606 40.3030303,8.23181307 40.3030303,5.3030303 C40.3030303,2.37424754 37.9287828,0 35,0 C32.0712172,0 29.6969697,2.37424754 29.6969697,5.3030303 C29.6969697,8.05283611 31.7899046,10.3138108 34.469697,10.5798768 L34.469697,29.7505482 C34.6441169,29.7332307 34.821023,29.7243644 35,29.7243644 C37.9287828,29.7243644 40.3030303,32.0986119 40.3030303,35.0273947 C40.3030303,36.0187978 40.0309781,36.9466598 39.5574554,37.7403988 L59.7734027,50.7363649 C60.5563618,48.7850182 62.4657453,47.4070532 64.6969697,47.4070532 C67.6257525,47.4070532 70,49.7813008 70,52.7100836 C70,55.6388663 67.6257525,58.0131139 64.6969697,58.0131139 C61.7681869,58.0131139 59.3939394,55.6388663 59.3939394,52.7100836 C59.3939394,52.0125252 59.5286224,51.3464237 59.7734027,50.7363649 L39.5574554,37.7403988 C38.632107,39.2915073 36.9373796,40.330425 35,40.330425 C33.0071119,40.330425 31.2709798,39.2311217 30.3649144,37.6058258 L10.271017,49.8056921 C10.8181525,50.6399759 11.1363636,51.6378686 11.1363636,52.7100836 C11.1363636,55.6388663 8.7621161,58.0131139 5.83333333,58.0131139 C2.90455057,58.0131139 0.53030303,55.6388663 0.53030303,52.7100836 C0.53030303,49.7813008 2.90455057,47.4070532 5.83333333,47.4070532 C7.68990118,47.4070532 9.32363759,48.3611081 10.271017,49.8056921 L30.3649144,37.6058258 C29.9394104,36.8425588 29.6969697,35.9632893 29.6969697,35.0273947 C29.6969697,32.2775888 31.7899046,30.0166142 34.469697,29.7505482 Z M9.00092315,48.562025 L31.5439287,9.2142336 M38.5528674,9.38318682 L61.1614197,48.8453871 M59.4821484,54.0909091 L11.0479195,54.0909091" id="Oval-4-Copy-3"></path>
                </g>
            </g>
        </g>
    </g>
</svg>