<?xml version="1.0" encoding="UTF-8"?>
<svg width="66px" height="67px" viewBox="0 0 66 67" version="1.1" xmlns="http://www.w3.org/2000/svg" xmlns:xlink="http://www.w3.org/1999/xlink">
    <!-- Generator: Sketch 50 (54983) - http://www.bohemiancoding.com/sketch -->
    <title>Group 24</title>
    <desc>Created with Sketch.</desc>
    <defs></defs>
    <g id="Page-1" stroke="none" stroke-width="1" fill="none" fill-rule="evenodd">
        <g id="首页-copy" transform="translate(-1154.000000, -3088.000000)">
            <g id="Group-24" transform="translate(1133.000000, 3067.000000)">
                <rect id="Rectangle-15-Copy-4" fill="#343434" opacity="0" x="14.443177" y="14.8553391" width="80" height="80"></rect>
                <path d="M53.8234836,86.6223648 C60.4913117,86.6223648 65.8966544,72.2081177 65.8966544,54.4272428 C65.8966544,36.646368 60.4913117,22.2321209 53.8234836,22.2321209 C47.1556556,22.2321209 41.7503129,36.646368 41.7503129,54.4272428 C41.7503129,72.2081177 47.1556556,86.6223648 53.8234836,86.6223648 Z M21.6283617,54.4272428 C21.6283617,61.0950709 36.0426088,66.5004136 53.8234836,66.5004136 C71.6043585,66.5004136 86.0186056,61.0950709 86.0186056,54.4272428 C86.0186056,47.7594148 71.6043585,42.3540721 53.8234836,42.3540721 C36.0426088,42.3540721 21.6283617,47.7594148 21.6283617,54.4272428 Z" id="Oval-5" stroke="#FFFFFF"></path>
                <path d="M53.7616553,84.8734048 C51.7966765,85.1392844 50.2819708,86.823375 50.2819708,88.8612441 C50.2819708,91.0838535 52.0837517,92.8856344 54.306361,92.8856344 C56.5289704,92.8856344 58.3307513,91.0838535 58.3307513,88.8612441 C58.3307513,86.6386348 56.5289704,84.8368539 54.306361,84.8368539 C54.1216208,84.8368539 53.9397878,84.8493019 53.7616553,84.8734048 L53.7616553,61.4177749 C50.3433877,61.1430543 47.6483926,58.3054638 47.5997141,54.8280472 L24.1388494,54.8280472 C24.1408157,54.7763753 24.1418078,54.7244538 24.1418078,54.6723006 C24.1418078,52.4496912 22.3400269,50.6479103 20.1174175,50.6479103 C17.8948082,50.6479103 16.0930273,52.4496912 16.0930273,54.6723006 C16.0930273,56.8949099 17.8948082,58.6966908 20.1174175,58.6966908 C22.2878737,58.6966908 24.057019,56.9784749 24.1388494,54.8280472 L47.5997141,54.8280472 C47.5992678,54.7961702 47.599044,54.7642394 47.599044,54.7322563 C47.599044,51.2112879 50.3120528,48.3239766 53.7616553,48.0467377 L53.7616553,24.5388067 C53.9205755,24.5578858 54.0823439,24.567703 54.2464053,24.567703 C56.4690147,24.567703 58.2707956,22.7659221 58.2707956,20.5433128 C58.2707956,18.3207034 56.4690147,16.5189225 54.2464053,16.5189225 C52.023796,16.5189225 50.2220151,18.3207034 50.2220151,20.5433128 C50.2220151,22.6018607 51.7676171,24.299414 53.7616553,24.5388067 L53.7616553,48.0467377 C53.9413189,48.0322985 54.1229806,48.0249392 54.306361,48.0249392 C58.01071,48.0249392 61.0136781,51.0279074 61.0136781,54.7322563 C61.0136781,54.7642394 61.0134543,54.7961702 61.013008,54.8280472 L84.4120763,54.8280472 C84.4113326,54.796207 84.4109586,54.7642753 84.4109586,54.7322563 C84.4109586,52.5096469 86.2127395,50.7078661 88.4353489,50.7078661 C90.6579582,50.7078661 92.4597391,52.5096469 92.4597391,54.7322563 C92.4597391,56.9548657 90.6579582,58.7566465 88.4353489,58.7566465 C86.2447585,58.7566465 84.4629591,57.0064048 84.4120763,54.8280472 L61.013008,54.8280472 C60.961771,58.4882362 57.9787269,61.4395734 54.306361,61.4395734 C54.1229806,61.4395734 53.9413189,61.4322141 53.7616553,61.4177749 L53.7616553,84.8734048 Z" id="Line-5" stroke="#FFFFFF" stroke-linecap="square" transform="translate(54.276383, 54.702278) rotate(45.000000) translate(-54.276383, -54.702278) "></path>
            </g>
        </g>
    </g>
</svg>