<?xml version="1.0" encoding="UTF-8"?>
<svg width="53px" height="45px" viewBox="0 0 53 45" version="1.1" xmlns="http://www.w3.org/2000/svg" xmlns:xlink="http://www.w3.org/1999/xlink">
    <!-- Generator: Sketch 50 (54983) - http://www.bohemiancoding.com/sketch -->
    <title>Group 21</title>
    <desc>Created with Sketch.</desc>
    <defs></defs>
    <g id="Page-1" stroke="none" stroke-width="1" fill="none" fill-rule="evenodd">
        <g id="首页-copy" transform="translate(-162.000000, -3638.000000)" stroke="#ADBAC9">
            <g id="Group-21" transform="translate(158.000000, 3631.000000)">
                <g id="Group-16" transform="translate(3.766640, 8.072725)">
                    <path d="M25.9160305,19.2487398 L25.9160305,7.84192867 C23.9487064,7.64471745 22.4122137,5.96885652 22.4122137,3.93066822 C22.4122137,1.75982011 24.1552273,0 26.3053435,0 C28.4554597,0 30.1984733,1.75982011 30.1984733,3.93066822 C30.1984733,6.10151634 28.4554597,7.86133644 26.3053435,7.86133644 C26.1739506,7.86133644 26.044078,7.85476458 25.9160305,7.84192867 L25.9160305,19.2487398 L32.6364957,29.9112998 L44.492317,37.6063884 C44.3126157,38.0585711 44.2137405,38.5522934 44.2137405,39.0693318 C44.2137405,41.2401799 45.956754,43 48.1068702,43 C50.2569864,43 52,41.2401799 52,39.0693318 C52,36.8984837 50.2569864,35.1386636 48.1068702,35.1386636 C46.4688547,35.1386636 45.0671132,36.1600274 44.492317,37.6063884 L32.6364957,29.9112998 L32.705627,30.0209822 L19.3999417,30.0209822 L8.15097995,36.9165628 C8.55265024,37.5349437 8.78625954,38.2745935 8.78625954,39.0693318 C8.78625954,41.2401799 7.04324597,43 4.89312977,43 C2.74301357,43 1,41.2401799 1,39.0693318 C1,36.8984837 2.74301357,35.1386636 4.89312977,35.1386636 C6.25609758,35.1386636 7.45547746,35.8458202 8.15097995,36.9165628 L19.3999417,30.0209822 L18.8305125,30.0209822 L25.7680698,19.0139881 L25.9160305,19.2487398 Z M7.21856212,35.9947422 L23.7681273,6.82969795 M28.9136209,6.95492806 L45.5113062,36.2047735 M44.2784976,40.0928159 L8.72132978,40.0928159" id="Oval-4-Copy-3"></path>
                </g>
            </g>
        </g>
    </g>
</svg>
