<?xml version="1.0" encoding="UTF-8"?>
<svg width="51px" height="51px" viewBox="0 0 51 51" version="1.1" xmlns="http://www.w3.org/2000/svg" xmlns:xlink="http://www.w3.org/1999/xlink">
    <!-- Generator: Sketch 50 (54983) - http://www.bohemiancoding.com/sketch -->
    <title>Group 11</title>
    <desc>Created with Sketch.</desc>
    <defs></defs>
    <g id="Page-1" stroke="none" stroke-width="1" fill="none" fill-rule="evenodd">
        <g id="首页-copy" transform="translate(-464.000000, -3636.000000)">
            <g id="Group-11" transform="translate(453.000000, 3625.000000)">
                <rect id="Rectangle-12" fill="#383838" opacity="0" x="6.63358449" y="6.26321412" width="59.2592593" height="59.2592593"></rect>
                <rect id="Rectangle-7" stroke="#ADBAC9" transform="translate(36.263214, 36.059043) rotate(45.000000) translate(-36.263214, -36.059043) " x="11.7632141" y="11.5590428" width="49" height="49" rx="2"></rect>
                <path d="M36.2632141,35.8928437 L18.115066,35.8928437 L36.2632141,35.8928437 L36.2632141,17.7446956 L36.2632141,35.8928437 Z M36.2632141,35.8928437 L54.4113623,35.8928437 L36.2632141,35.8928437 L36.2632141,54.1089555 L36.2632141,35.8928437 Z" id="Line-4" stroke="#ADBAC9" stroke-linecap="square" transform="translate(36.263214, 35.892844) rotate(45.000000) translate(-36.263214, -35.892844) "></path>
                <circle id="Oval-4" stroke="#ADBAC9" transform="translate(35.739431, 22.798274) rotate(45.000000) translate(-35.739431, -22.798274) " cx="35.7394313" cy="22.7982737" r="3.7037037"></circle>
                <circle id="Oval-4-Copy-2" stroke="#ADBAC9" transform="translate(23.168644, 35.369061) rotate(45.000000) translate(-23.168644, -35.369061) " cx="23.1686441" cy="35.3690609" r="3.7037037"></circle>
                <circle id="Oval-4-Copy" stroke="#ADBAC9" transform="translate(48.834001, 35.892844) rotate(45.000000) translate(-48.834001, -35.892844) " cx="48.8340013" cy="35.8928437" r="3.7037037"></circle>
                <circle id="Oval-4-Copy-4" stroke="#ADBAC9" transform="translate(36.263214, 48.465464) rotate(45.000000) translate(-36.263214, -48.465464) " cx="36.2632141" cy="48.4654641" r="3.70499992"></circle>
            </g>
        </g>
    </g>
</svg>