<?xml version="1.0" encoding="UTF-8"?>
<svg width="51px" height="52px" viewBox="0 0 51 52" version="1.1" xmlns="http://www.w3.org/2000/svg" xmlns:xlink="http://www.w3.org/1999/xlink">
    <!-- Generator: Sketch 50 (54983) - http://www.bohemiancoding.com/sketch -->
    <title>Group 22 Copy</title>
    <desc>Created with Sketch.</desc>
    <defs></defs>
    <g id="Page-1" stroke="none" stroke-width="1" fill="none" fill-rule="evenodd">
        <g id="首页-copy" transform="translate(-1056.000000, -3807.000000)" stroke="#ADBAC9">
            <g id="Group-22-Copy" transform="translate(1051.000000, 3803.000000)">
                <g id="Group-2" transform="translate(6.000000, 5.000000)">
                    <circle id="Path" cx="24.5" cy="5.5" r="5.5"></circle>
                    <path d="M19.0411131,6 C9.25253602,8.43949195 2,17.2893994 2,27.8332274 C2,30.09631 2.24977765,31.8856075 2.87136826,33.9459808 M8.32777404,43.4764362 C12.4184532,47.7045762 18.1522494,50.3332274 24.5,50.3332274 C30.8390477,50.3332274 36.5658234,47.7117791 40.6553916,43.4938177 M46.1008951,34.1510531 C46.6861451,32.1467225 47,30.0266273 47,27.8332274 C47,17.3932478 39.8896239,8.6139854 30.2473735,6.07394224" id="Oval-8"></path>
                    <circle id="Path-Copy" cx="24.5" cy="28.5" r="5.5"></circle>
                    <circle id="Path" cx="5.5" cy="38.5" r="5.5"></circle>
                    <circle id="Path" cx="43.5" cy="38.5" r="5.5"></circle>
                </g>
                <path d="M14.2379763,39.1882477 L27.4870974,15.4077739 M33.4628385,15.3179152 L46.601647,38.9003921 M44.2447569,45 L16.7906184,45" id="Triangle"></path>
            </g>
        </g>
    </g>
</svg>
