<?xml version="1.0" encoding="UTF-8"?>
<svg width="48px" height="48px" viewBox="0 0 48 48" version="1.1" xmlns="http://www.w3.org/2000/svg" xmlns:xlink="http://www.w3.org/1999/xlink">
    <!-- Generator: Sketch 50 (54983) - http://www.bohemiancoding.com/sketch -->
    <title>Group 22 Copy 2</title>
    <desc>Created with Sketch.</desc>
    <defs></defs>
    <g id="Page-1" stroke="none" stroke-width="1" fill="none" fill-rule="evenodd">
        <g id="首页-copy" transform="translate(-758.000000, -3637.000000)" stroke="#ADBAC9">
            <g id="Group-22-Copy-2" transform="translate(752.000000, 3631.000000)">
                <path d="M25.9247856,34.0752144 C15.1661311,33.7289569 7,32.0361356 7,30 C7,27.9638644 15.1661311,26.2710431 25.9247856,25.9247856 C26.2710431,15.1661311 27.9638644,7 30,7 C32.0361356,7 33.7289569,15.1661311 34.0752144,25.9247856 C44.8338689,26.2710431 53,27.9638644 53,30 C53,32.0361356 44.8338689,33.7289569 34.0752144,34.0752144 C33.7289569,44.8338689 32.0361356,53 30,53 C27.9638644,53 26.2710431,44.8338689 25.9247856,34.0752144 Z M30,24.2367766 C37.8523586,16.8741 44.8236907,12.2967787 46.263456,13.736544 C47.7032213,15.1763093 43.1259,22.1476414 35.7632234,30 C43.1259,37.8523586 47.7032213,44.8236907 46.263456,46.263456 C44.8236907,47.7032213 37.8523586,43.1259 30,35.7632234 C22.1476414,43.1259 15.1763093,47.7032213 13.736544,46.263456 C12.2967787,44.8236907 16.8741,37.8523586 24.2367766,30 C16.8741,22.1476414 12.2967787,15.1763093 13.736544,13.736544 C15.1763093,12.2967787 22.1476414,16.8741 30,24.2367766 Z" id="Oval-6"></path>
            </g>
        </g>
    </g>
</svg>