<?xml version="1.0" encoding="UTF-8"?>
<svg width="47px" height="41px" viewBox="0 0 47 41" version="1.1" xmlns="http://www.w3.org/2000/svg" xmlns:xlink="http://www.w3.org/1999/xlink">
    <!-- Generator: Sketch 50 (54983) - http://www.bohemiancoding.com/sketch -->
    <title>Group 18 Copy 2</title>
    <desc>Created with Sketch.</desc>
    <defs></defs>
    <g id="Page-1" stroke="none" stroke-width="1" fill="none" fill-rule="evenodd">
        <g id="首页-copy" transform="translate(-1057.000000, -3643.000000)" stroke="#ADBAC9">
            <g id="Group-18-Copy-2" transform="translate(1051.000000, 3631.000000)">
                <g id="Group-17" transform="translate(7.500000, 12.500000)">
                    <path d="M35.337896,7.177502 L28.7776389,10.8957447 C29.846796,12.2878948 30.4529316,14.0142312 30.4529316,15.8268727 C30.4529316,18.7187726 28.9101214,21.3909983 26.4056626,22.8369483 C25.1848582,23.54178 23.8259641,23.9030399 22.4636046,23.9207278 L22.4636046,29.9866314 C25.1164181,30.0426117 27.2496979,32.2105921 27.2496979,34.8768267 C27.2496979,37.5782195 25.0597863,39.768131 22.3583935,39.768131 C19.6570007,39.768131 17.4670892,37.5782195 17.4670892,34.8768267 C17.4670892,32.1754339 19.6570007,29.9855223 22.3583935,29.9855223 C22.3935518,29.9855223 22.4286233,29.9858933 22.4636046,29.9866314 L22.4636046,23.9207278 C21.0311074,23.9393263 19.5947789,23.5780665 18.3111245,22.8369483 C15.8066657,21.3909983 14.2638555,18.7187726 14.2638555,15.8268727 C14.2638555,14.406604 14.6359789,13.0393205 15.3113829,11.8442612 L8.91799594,8.18778344 C9.46323316,7.39883368 9.78258663,6.44182521 9.78258663,5.41022775 C9.78258663,2.70883495 7.59267508,0.518923398 4.89128228,0.518923398 C2.18988948,0.518923398 -2.20702423e-05,2.70883495 -2.20702423e-05,5.41022775 C-2.20702423e-05,8.11162054 2.18988948,10.3015321 4.89128228,10.3015321 C6.56107761,10.3015321 8.03544767,9.46481704 8.91799594,8.18778344 L15.3113829,11.8442612 C16.0112122,10.6059839 17.0366545,9.55261274 18.3111245,8.81679711 C20.8155833,7.37084716 23.9012038,7.37084716 26.4056626,8.81679711 C27.3403278,9.35642633 28.1410559,10.0668495 28.7776389,10.8957447 L35.337896,7.177502 C35.1254202,6.62936698 35.0088796,6.03340712 35.0088796,5.41022775 C35.0088796,2.70883495 37.1987911,0.518923398 39.9001839,0.518923398 C42.6015767,0.518923398 44.7914883,2.70883495 44.7914883,5.41022775 C44.7914883,8.11162054 42.6015767,10.3015321 39.9001839,10.3015321 C37.8219705,10.3015321 36.0464725,9.00545334 35.337896,7.177502 Z" id="Polygon"></path>
                </g>
            </g>
        </g>
    </g>
</svg>