<?xml version="1.0" encoding="UTF-8"?>
<svg width="54px" height="45px" viewBox="0 0 54 45" version="1.1" xmlns="http://www.w3.org/2000/svg" xmlns:xlink="http://www.w3.org/1999/xlink">
    <!-- Generator: Sketch 50 (54983) - http://www.bohemiancoding.com/sketch -->
    <title>Group 21 Copy</title>
    <desc>Created with Sketch.</desc>
    <defs></defs>
    <g id="Page-1" stroke="none" stroke-width="1" fill="none" fill-rule="evenodd">
        <g id="首页-copy" transform="translate(-462.000000, -3810.000000)" stroke="#ADBAC9">
            <g id="Group-21-Copy" transform="translate(459.000000, 3803.000000)">
                <g id="Group-16" transform="translate(3.766640, 8.072725)">
                    <path d="M26.0557187,29.9339623 L22.1275481,26.0057917 L26.0557187,22.0776211 L29.9838893,26.0057917 L26.0557187,29.9339623 Z M26.0557187,7.91591464 C23.88625,7.91591464 22.1275481,6.15721276 22.1275481,3.98774404 C22.1275481,1.81827533 23.88625,0.0595734491 26.0557187,0.0595734491 C28.2251874,0.0595734491 29.9838893,1.81827533 29.9838893,3.98774404 C29.9838893,6.15721276 28.2251874,7.91591464 26.0557187,7.91591464 Z M4.45078042,43.0322504 C2.28131171,43.0322504 0.522609829,41.2735485 0.522609829,39.1040798 C0.522609829,36.9346111 2.28131171,35.1759092 4.45078042,35.1759092 C6.62024914,35.1759092 8.37895102,36.9346111 8.37895102,39.1040798 C8.37895102,41.2735485 6.62024914,43.0322504 4.45078042,43.0322504 Z M48.053474,43.0322504 C45.8840053,43.0322504 44.1253034,41.2735485 44.1253034,39.1040798 C44.1253034,36.9346111 45.8840053,35.1759092 48.053474,35.1759092 C50.2229427,35.1759092 51.9816446,36.9346111 51.9816446,39.1040798 C51.9816446,41.2735485 50.2229427,43.0322504 48.053474,43.0322504 Z M6.79714325,36.0314439 L23.4956659,6.88493167 M28.6874724,7.0100822 L45.4345481,36.2413417 M44.1906434,40.1269135 L8.31343685,40.1269135" id="Oval-4-Copy-3"></path>
                </g>
            </g>
        </g>
    </g>
</svg>