<?xml version="1.0" encoding="UTF-8"?>
<svg width="72px" height="72px" viewBox="0 0 72 72" version="1.1" xmlns="http://www.w3.org/2000/svg" xmlns:xlink="http://www.w3.org/1999/xlink">
    <!-- Generator: Sketch 50 (54983) - http://www.bohemiancoding.com/sketch -->
    <title>Group 8</title>
    <desc>Created with Sketch.</desc>
    <defs></defs>
    <g id="Page-1" stroke="none" stroke-width="1" fill="none" fill-rule="evenodd">
        <g id="首页-copy" transform="translate(-1076.000000, -869.000000)" stroke="#FFFFFF">
            <g id="Group-8" transform="translate(1077.000000, 870.000000)">
                <circle id="Oval-2-Copy-2" cx="35" cy="35" r="35"></circle>
                <path d="M40.0216264,40.7834386 C40.622809,41.3320617 41,42.121982 41,43 C41,44.6568542 39.6568542,46 38,46 C36.3431458,46 35,44.6568542 35,43 C35,41.7512661 35.7629469,40.680728 36.848127,40.2290995 L32.5585775,34.5638739 C33.4228771,34.0373411 34,33.0860677 34,32 C34,30.3431458 32.6568542,29 31,29 C29.3431458,29 28,30.3431458 28,32 C28,32.849545 28.3531241,33.6166135 28.9205988,34.162432 L20.0027051,43.7663176 C20.6148841,44.3155612 21,45.1128063 21,46 C21,47.6568542 19.6568542,49 18,49 C16.3431458,49 15,47.6568542 15,46 C15,44.3431458 16.3431458,43 18,43 C18.7696605,43 19.4716261,43.2898364 20.0027051,43.7663176 L28.9205988,34.162432 C29.4598612,34.6811148 30.1926908,35 31,35 C31.5707865,35 32.104342,34.840595 32.5585775,34.5638739 L36.848127,40.2290995 C37.2027935,40.081495 37.5918797,40 38,40 C38.7788363,40 39.4883539,40.2967884 40.0216264,40.7834386 L51.2372629,27.4277631 C50.487441,26.8823966 50,25.9981223 50,25 C50,23.3431458 51.3431458,22 53,22 C54.6568542,22 56,23.3431458 56,25 C56,26.6568542 54.6568542,28 53,28 C52.341268,28 51.7321239,27.7876892 51.2372629,27.4277631 L40.0216264,40.7834386 Z" id="Oval-3"></path>
            </g>
        </g>
    </g>
</svg>